<svg xmlns="http://www.w3.org/2000/svg" viewBox="0 0 209.83 134.91"><defs><style>.a{isolation:isolate;}.b{fill:#e0edf9;}.c{fill:#6e1d14;}.d{fill:#5b1511;}.e{fill:#7cc2c7;}.f{fill:#449fa1;}.g{fill:#f1b5ab;}.h{fill:#f5948d;}.i{fill:#ee7123;}.j{fill:#a45b52;}.k{fill:#272b6a;}.l{fill:#2b91be;}.m{fill:#6e2b28;}.n{fill:#fff;}.o{fill:#1e1724;}.p{fill:#d15c27;}.q{fill:#90584d;}.r{fill:#a1d0c0;}.s{fill:#97d8e9;}.t{fill:#68b4d6;}.u{fill:#3485ba;}.v{fill:#bde4e8;}.w{fill:#a6ddeb;}.x{fill:#66c8ce;}.y{fill:#235daa;}.z{fill:#90d6e9;}.aa{fill:#263b7f;}.ab{fill:#d24c27;}.ac{fill:#721813;}.ad{fill:#983222;}.ae{fill:#05509c;}.af{fill:#661513;}.ag{fill:#212a60;}.ah{fill:#7a1715;}.ai{fill:#f79738;}.aj{fill:#e18726;}.ak{fill:#cc4527;}.al{fill:#654526;}.am{fill:#1e2d58;}.an{fill:#d64e27;}.ao{fill:#51351b;}.ap{fill:#aa2423;}.aq{fill:#761815;}.ar{fill:#4f331b;}.as{fill:#b75349;}.at{fill:#1da8b7;}.au{fill:#732723;}.av{fill:#a6d6b4;}.aw{fill:#63c4ba;}.ax{fill:#d0918e;}.ay{fill:#b97b7b;}.az{fill:#ffc40c;}.ba{fill:#f7981d;}.bb{fill:#dd8426;}.bc{fill:#ea6b24;}.bd{fill:#845857;opacity:0.4;mix-blend-mode:multiply;}.be{fill:#f5a42a;}.bf{fill:#93d6e8;}.bg{fill:#3a68b1;}.bh{fill:#416db4;}.bi{fill:#055257;}.bj{fill:#014245;}.bk{fill:#c23827;}.bl{fill:#0d64a5;}.bm{fill:#1e7ea0;}.bn{fill:#0c6f88;}.bo{fill:#0b9399;}.bp{fill:#77c7d7;}.bq{fill:#675352;}.br{fill:#f06080;}.bs{fill:#b72d4c;}.bt{fill:#ed3455;}.bu{fill:#eb5729;}</style></defs><title>Band</title><g class="a"><path class="b" d="M189.37,66.3c-5.55,35.51-39.19,53.2-88.15,50.5-52.13-2.88-85.54-15-88.42-53.85C10.75,35.39,53.68,9.22,105.89,10,170.75,10.93,194.22,35.27,189.37,66.3Z"/><path class="c" d="M178.34,24.55c-.06.9-2.11,3.36-2.8,4h0a21.61,21.61,0,0,0-1.22-2.95,3.75,3.75,0,0,0-.54-.78,6,6,0,0,0-3.24-1.26l-.51-.06a6.38,6.38,0,0,0-.7-.05,5.33,5.33,0,0,0-.6,0s-1.3-.1-2.21,2.26a41.16,41.16,0,0,0-1.57,7s-6-5.87-5.84-7.32,1.72-.06,1.82,0c-.06-.11-1.18-2-.91-2.55s1.85.12,1.85.12-1.52-3-.64-3.56,1.8,1,1.8,1-.12-4.56,2.12-4.73a2.12,2.12,0,0,1,2.44,1.85s2-2.84,2.73-2.61.34,3.16.32,3.28a25.29,25.29,0,0,1,2.88-2.1,7,7,0,0,1,.9-.46,1.35,1.35,0,0,1,.86-.12c.89.35-.23,2.12-.56,2.63.23-.29.8-.9,1.2-.46s-.76,2.12-.45,2c1.18-.45,1.69-.25,1.81.71s-1.92,3-1.92,3a2.69,2.69,0,0,1,3,.9A.35.35,0,0,1,178.34,24.55Z"/><path class="d" d="M174.42,15.72A47.37,47.37,0,0,0,170,23.54a6.38,6.38,0,0,0-.7-.05,5.33,5.33,0,0,0-.6,0s-1.3-.1-2.21,2.26a41.16,41.16,0,0,0-1.57,7s-6-5.87-5.84-7.32,1.72-.06,1.82,0c-.06-.11-1.18-2-.91-2.55s1.85.12,1.85.12-1.52-3-.64-3.56,1.8,1,1.8,1-.12-4.56,2.12-4.73a2.12,2.12,0,0,1,2.44,1.85s2-2.84,2.73-2.61.34,3.16.32,3.28a25.29,25.29,0,0,1,2.88-2.1A7,7,0,0,1,174.42,15.72Z"/><path class="e" d="M175.65,39.67c0,.35,0,.79-.05,1.29a68.54,68.54,0,0,1-.63,8l-7.32,1.67s-1.06-5.76-1.84-9.08c-.12-.49-.23-.93-.33-1.29a22,22,0,0,1,3.6-.94A15.19,15.19,0,0,1,175.65,39.67Z"/><path class="f" d="M176.84,40a6.13,6.13,0,0,1-1.24.92,10,10,0,0,1-4.49,1.22,13.66,13.66,0,0,1-5.3-.66,9.21,9.21,0,0,1-1.65-.75c.45-.21.89-.38,1.32-.54a22,22,0,0,1,3.6-.94,15.19,15.19,0,0,1,6.57.38C176.08,39.79,176.48,39.91,176.84,40Z"/><path class="g" d="M173.84,37.44c-.07.32-.17.78-.3,1.3-.48,1.89-1.37,4.63-2.43,4.59-1.26,0-1.74-2.45-2.09-4.33-.08-.43-.15-.82-.22-1.16,1.13,0,2.42,0,3.58-.1A5.93,5.93,0,0,0,173.84,37.44Z"/><path class="h" d="M173.84,37.44c-.07.32-.17.78-.3,1.3A10.47,10.47,0,0,1,169,39c-.08-.43-.15-.82-.22-1.16,1.13,0,2.42,0,3.58-.1A5.93,5.93,0,0,0,173.84,37.44Z"/><path class="g" d="M176.86,35.68c-.29.86-1.79,2-3.4,2.57a5,5,0,0,1-1.36.27c-1.06,0-2.26.14-3.3.1l-.29,0a3.53,3.53,0,0,1-1.9-.51c-1-.74-1.34-2.51-1.66-5.36,0,0,.35-4.75.7-6.54a3.14,3.14,0,0,1,2.57-2.7,3.48,3.48,0,0,1,.69-.11c.42,0,.42.11.42.11.21,0,.46,0,.74.05a6.59,6.59,0,0,1,3.71,1.32,14.17,14.17,0,0,1,1.76,3.73C176.28,31.24,177.12,34.9,176.86,35.68Z"/><path class="d" d="M178.34,24.55c-.06.9-2.11,3.36-2.8,4h0a19.37,19.37,0,0,0-1.21-2.94A20.41,20.41,0,0,0,178.34,24.55Z"/><path class="h" d="M168.51,38.6a3.53,3.53,0,0,1-1.9-.51c-1-.74-1.34-2.51-1.66-5.36,0,0,.35-4.75.7-6.54a3.14,3.14,0,0,1,2.57-2.7,3.48,3.48,0,0,1,.69-.11l.42.11c.21,0,.46,0,.74.05a38,38,0,0,0-3.52,9.11A10.61,10.61,0,0,0,168.51,38.6Z"/><path class="e" d="M164,62.82c0,.19-.07.4-.11.62-.27,1.58-.63,3.7-1,5.89l0,0s-.73-5.46-1-8.49-2.17-5.62-3.16-7.74-3.46-7.4-3.51-13.33a28.78,28.78,0,0,1,2.57-11.3,5.59,5.59,0,0,0,1.46,2.12,7.68,7.68,0,0,0,5,1.75c-1.64,2.39-1.86,9.38-1.86,9.38.37-.24.75-.45,1.12-.65a25,25,0,0,1,1.7,7.83A74.57,74.57,0,0,1,164,62.82Z"/><path class="e" d="M195.57,32.39a26.32,26.32,0,0,1-3.14,5.89c-1.69,2.08-4.66,5.44-6.58,7.45-1.52,1.59-3.33,3.81-3.64,5.19-.25,1.11-1.6,5.7-2.12,7.47,0,0-1.78-7-2.52-8.77l.89-8.92a4.21,4.21,0,0,0,.67.27,19.15,19.15,0,0,0,2.34-2c1.88-1.7,4.32-4,5.16-4.63,1.39-1.09,4.44-3.54,4.44-3.54a2.72,2.72,0,0,0,1,1A6,6,0,0,0,195.57,32.39Z"/><path class="i" d="M195.23,74.49c-.37,1.1-1,3.12-1.7,5.52-2.1,7-5,17.26-5,17.26l-1.33.65L187,98a28.12,28.12,0,0,1-2.14-9.52A44.42,44.42,0,0,1,186,78c.12-.55.2-.86.2-.86l-.94.27c-4.29,1.24-11.64,3.48-11.64,3.48s-2.17,7.2-4,13.71c-.79,2.86-1.5,5.6-1.93,7.52-.36,1.66-.95,4.46-1.61,7.69h0l-.12.6c-1.84,9-4.21,20.9-4.21,20.9-.22.39-1,.42-1.41.41h-.2s-4-14.6-3.29-19.27a18,18,0,0,1,1.49-5,15.16,15.16,0,0,1,1.56-2.74c.1-1.17.24-3.16.38-5.55.48-7.55,1.14-19.16,1.5-22.12.24-2,.64-4.65,1.06-7.3h0l0-.25a.51.51,0,0,0,0-.17l.18-1.11c0-.09,0-.17,0-.26.31-1.92.61-3.7.84-5h0l0-.13a74.57,74.57,0,0,0,1.17-13.89,25,25,0,0,0-1.7-7.83q.34-.18.69-.33c.45-.21.89-.38,1.32-.54.1.36.21.8.33,1.29.78,3.32,1.84,9.08,1.84,9.08L175,48.93a68.54,68.54,0,0,0,.63-8c0-.5,0-.94.05-1.29.43.12.83.24,1.19.37.68.24,1.23.48,1.62.66l-.89,8.92c.74,1.73,2.52,8.77,2.52,8.77h0c-.42,1.41-1.16,6.84-1.49,9.36a3.11,3.11,0,0,1,0,.32c0,.13,0,.25,0,.36s0,.22,0,.31,0,.32,0,.32a56.79,56.79,0,0,1,10.93-2.77c4.13-.67,7.54-.86,7.93-.46C198.06,66.59,196.67,70.16,195.23,74.49Z"/><path class="j" d="M175.11,15.92l0,0Z"/><path class="g" d="M199.56,14.42c-.18.12-.18,6.18-.81,9.87a30.35,30.35,0,0,1-3.18,8.1,4.31,4.31,0,0,1-3.41-.49,3.43,3.43,0,0,1-1.09-1.09,65.84,65.84,0,0,1,1.45-7.09,43.3,43.3,0,0,1,4.15-10,16,16,0,0,1-.46-5.32l0,0c.62-.63,1.34,2.35,1.34,2.35s1.44-4.21,2.13-3.75-.75,2.54-.87,2.72h0c.11-.12,1.64-2.18,2-2s-1.07,2.46-1.54,3.12c.49-.59,2.08-2.43,2.41-2.43s-1.5,3.33-1.61,3.52c.12-.14,2.08-2.33,2.36-1.61S199.73,14.31,199.56,14.42Z"/><path class="c" d="M167.15,26.61c1.06-.17,2.77-.23,2.45-.56a2.1,2.1,0,0,0-2-.48,2.62,2.62,0,0,0-1.72,1.28S166.4,26.74,167.15,26.61Z"/><path class="c" d="M171.92,25.88c-.4-.07-.68-.93.84-.9a2.26,2.26,0,0,1,2,1.1S172.48,26,171.92,25.88Z"/><path class="k" d="M160.15,131.73a18.44,18.44,0,0,0-1.79,2.66h4.84s-1.23-2.3-1.54-2.94Z"/><path class="k" d="M187,98l.51,1.38h6.29S192.06,94.57,187,98Z"/><path class="l" d="M169.63,94.61c-.79,2.86-1.5,5.6-1.93,7.52-.38,1.76-1,4.81-1.73,8.3-1.46,1.14-3.52,2.68-4,2.68s-2.6-3.7-3.66-5.64a15.16,15.16,0,0,1,1.56-2.74c.1-1.17.24-3.16.38-5.55A42.63,42.63,0,0,0,166,96.53C167.6,95.67,168.79,95,169.63,94.61Z"/><path class="l" d="M195.23,74.49c-.37,1.1-1,3.12-1.7,5.52A18,18,0,0,0,186,78c.12-.55.2-.86.2-.86l-.94.27a85.55,85.55,0,0,1,4.14-11.12c4.13-.67,7.54-.86,7.93-.46C198.06,66.59,196.67,70.16,195.23,74.49Z"/><path class="m" d="M165.58,68.59l.25,0,0,.26-.25-.05a14.29,14.29,0,0,1-2.47-.63c0-.09,0-.17,0-.26A13.64,13.64,0,0,0,165.58,68.59Z"/><path class="m" d="M174.74,68.76l0,.27-.26,0a27.75,27.75,0,0,1-3.13.21h-.56a32.37,32.37,0,0,1-3.82-.21l-.25,0,0-.26.25,0a32.45,32.45,0,0,0,4.33.21,30.55,30.55,0,0,0,3.16-.21Z"/><path class="m" d="M178.6,67.76a3.11,3.11,0,0,1,0,.32,15.37,15.37,0,0,1-3,.82l-.26,0v-.27l.26,0A13.81,13.81,0,0,0,178.6,67.76Z"/><path class="m" d="M165.71,70.29v.26l-.26,0h0a24.71,24.71,0,0,1-2.59-.73h0l0-.25a24.4,24.4,0,0,0,2.58.73h0Z"/><path class="m" d="M174.37,70.42l.27-.08,0,.28-.27.07a13.83,13.83,0,0,1-3.36.44h-.18a23.67,23.67,0,0,1-4.12-.38l-.25,0,0-.25.25,0h0a22.27,22.27,0,0,0,4.25.37A13.43,13.43,0,0,0,174.37,70.42Z"/><path class="m" d="M178.52,68.44l0,.31a11.13,11.13,0,0,1-2.93,1.57l-.26.09v-.27l.26-.1a9.83,9.83,0,0,0,2.87-1.58A.12.12,0,0,1,178.52,68.44Z"/><path class="m" d="M167,68.19a.13.13,0,0,0-.1,0h-1.21a.13.13,0,0,0-.13.12l0,.32,0,.26-.1,1.38h0l0,.25h0l-.09,1.23a.13.13,0,0,0,.1.13l.9.22h0l.07,0a.15.15,0,0,0,.06-.09l.18-1.22,0-.25h0l.21-1.44,0-.26.08-.5A.2.2,0,0,0,167,68.19Zm-.34.84-.22,1.42,0,.25-.17,1.09-.65-.16.08-1.08v-.26l.1-1.39,0-.26,0-.23h.94l0,.36Z"/><path class="m" d="M174.46,69.06l-.09,1.36.27-.08.08-1.31Zm1-.91h-.77a.14.14,0,0,0-.14.12l0,.53,0,.26-.09,1.36,0,.27,0,.82a.15.15,0,0,0,0,.11.14.14,0,0,0,.09,0h0l1-.22a.13.13,0,0,0,.1-.13v-3A.13.13,0,0,0,175.42,68.15Zm-.13,3-.72.16.05-.74,0-.28.08-1.31,0-.27,0-.35h.52Z"/><path class="m" d="M169.8,32.82s-.07,0-.08-.06,0-.06.07-.09v0h.06l1.1-.3a3.75,3.75,0,0,1,1.67-.17c-.71-1.84-1.82-4.91-1.66-5.64a.09.09,0,0,1,.17,0c-.11.5.53,2.62,1.7,5.66l0,.08a.09.09,0,0,1,0,.11.09.09,0,0,1-.11,0h0s-.28-.26-1.72.11l-1.1.29h-.09Z"/><path class="n" d="M169.66,34.77l3.62-.47a2,2,0,0,1-1.76,1.83A1.63,1.63,0,0,1,169.66,34.77Z"/><path class="o" d="M169.22,28.59c0,.61-.22,1.11-.5,1.11s-.5-.5-.5-1.11.23-1.11.5-1.11S169.22,28,169.22,28.59Z"/><path class="o" d="M173.66,28.1c0,.56-.21,1-.47,1s-.46-.46-.46-1,.21-1,.46-1S173.66,27.53,173.66,28.1Z"/><path class="g" d="M176.71,7.79l-.05.06A18,18,0,0,1,173.71,10l-.37,1.13h0c-.56,1.7-1.67,5-2.69,7.46-1.44,3.46-6.44,13.73-6.44,13.73a6.36,6.36,0,0,1-5.36-2,4.16,4.16,0,0,1-1.07-1.91A66.63,66.63,0,0,1,163,19.21c2.83-4,7-8.88,7-8.88-1.1-3.4-.37-7.29.35-7.5a.23.23,0,0,1,.23,0,2.2,2.2,0,0,1,.27,1.41c.2-.66.53-1.44.88-1.42.58,0,.44,2.46.41,2.85.06-.36.4-2.36,1-2.2s0,3.23.06,4.1,1.33.11,1.33.11C176.36,6.46,176.71,7.79,176.71,7.79Z"/><path class="c" d="M170.93,32.74A7.88,7.88,0,0,0,167,35.06s3.46-.36,5.17-.6c1.92-.27,3-.48,3-.48S174.29,32.26,170.93,32.74Z"/><path class="h" d="M170.75,10.93c-.3.48-5.11,5.84-7.49,10a93.23,93.23,0,0,0-4.41,9.44,4.16,4.16,0,0,1-1.07-1.91A66.63,66.63,0,0,1,163,19.21c2.83-4,7-8.88,7-8.88-1.1-3.4-.37-7.29.35-7.5a11.89,11.89,0,0,0-.23,4.69C170.7,9.38,171.05,10.46,170.75,10.93Z"/><path class="h" d="M176.66,7.85A18,18,0,0,1,173.71,10l-.37,1.13c.1-.92.19-1.81.21-1.88S175.53,8.51,176.66,7.85Z"/><path class="h" d="M197.52,14a36.29,36.29,0,0,0-3.31,8.7c-.53,2.68-1.42,6.93-2.05,9.24a3.43,3.43,0,0,1-1.09-1.09,65.84,65.84,0,0,1,1.45-7.09,43.3,43.3,0,0,1,4.15-10,16,16,0,0,1-.46-5.32l0,0A22.16,22.16,0,0,0,197.52,14Z"/><path class="f" d="M163.89,63.44c-.27,1.58-.63,3.7-1,5.89l0,0s-.73-5.46-1-8.49-2.17-5.62-3.16-7.74-3.46-7.4-3.51-13.33a28.78,28.78,0,0,1,2.57-11.3,5.59,5.59,0,0,0,1.46,2.12,35.1,35.1,0,0,0-2.1,12c.18,3.12,3.47,10,4.91,13.91A47,47,0,0,1,163.89,63.44Z"/><path class="f" d="M192,31.81c-1.54,1.79-7.16,5.34-10.56,7.17,1.88-1.7,4.32-4,5.16-4.63,1.39-1.09,4.44-3.54,4.44-3.54A2.72,2.72,0,0,0,192,31.81Z"/><path class="p" d="M163.89,74.49s-1.21,8.6-1.95,15.75-1.27,16.51-1.27,16.51a23.84,23.84,0,0,0-2.31,9.92c0,4.84,1.61,13.17,2,15.07h-.2s-4-14.6-3.29-19.27a18,18,0,0,1,1.49-5,15.16,15.16,0,0,1,1.56-2.74c.1-1.17.24-3.16.38-5.55.48-7.55,1.14-19.16,1.5-22.12.24-2,.64-4.65,1.06-7.3h0l0-.25a.51.51,0,0,0,0-.17l.18-1.11c0-.09,0-.17,0-.26.31-1.92.61-3.7.84-5C164.13,65.21,164.11,72.13,163.89,74.49Z"/><path class="p" d="M187.16,97.92,187,98a28.12,28.12,0,0,1-2.14-9.52A44.42,44.42,0,0,1,186,78c.12-.55.2-.86.2-.86l-.94.27c-4.29,1.24-11.64,3.48-11.64,3.48s-2.17,7.2-4,13.71c-.79,2.86-1.5,5.6-1.93,7.52-.36,1.66-.95,4.46-1.61,7.69a108.31,108.31,0,0,1,1.61-12.59c2-9.06,4.68-17.22,4.68-17.22,4.27-.83,16.21-5.92,16.21-5.92s-.92,5.25-1.79,11.62A41.37,41.37,0,0,0,187.16,97.92Z"/><path class="q" d="M158.93,134.91a.53.53,0,0,1-.52-.52.48.48,0,0,1,0-.18c.18-.82,2-12.7,4-25.28,1.66-10.63,3.54-22.67,5-32.07.82-5.12,1.43-8.91,1.88-11.59.83-4.9.83-4.9,1.26-5a.52.52,0,0,1,.62.4.58.58,0,0,1,0,.35c-.46,1.56-4.65,28.41-7.71,48.06-1.08,7-2.07,13.29-2.8,17.9-.36,2.3-.66,4.17-.87,5.47-.11.65-.19,1.15-.25,1.5C159.44,134.59,159.38,134.91,158.93,134.91ZM171,61.23l-.16.07Z"/><path class="q" d="M197.88,134.91a.53.53,0,0,1-.52-.52V60.79a.52.52,0,0,1,.52-.52.52.52,0,0,1,.52.52v73.6A.52.52,0,0,1,197.88,134.91Z"/><path class="q" d="M180.36,134.91a.54.54,0,0,1-.49-.35c-.13-.37-4.12-33.27-6.48-52.85a.51.51,0,0,1,.13-.41.52.52,0,0,1,.39-.17h24.38a.5.5,0,0,1,.5.41l11,52.74a.52.52,0,0,1-1,.21L197.87,82.17H174.49c2.17,17.93,6.18,51,6.37,52.09a.52.52,0,0,1-.33.62A.47.47,0,0,1,180.36,134.91Z"/><rect class="r" x="165.83" y="81.65" width="32.46" height="2.94"/><rect class="r" x="163.2" y="100.69" width="34.31" height="2.25"/><rect class="r" x="160.41" y="122.07" width="37.88" height="2.25"/><rect class="r" x="170.01" y="59.43" width="28.5" height="2.02"/><path class="s" d="M200.45,4.5c0,1.24-3.14,2.33-7.81,2.9a62.13,62.13,0,0,1-7.72.45c-8.58,0-15.54-1.5-15.54-3.35s7-3.35,15.54-3.35c2.08,0,4.07.09,5.88.25C196.46,1.9,200.45,3.1,200.45,4.5Z"/><path class="t" d="M188.65,4.41c0,.72-1.8,1.3-4,1.3s-4-.58-4-1.3,1.8-1.3,4-1.3S188.65,3.7,188.65,4.41Z"/><path class="t" d="M200.45,2.48v2c0-1.39-4-2.59-9.58-3.09h0c-1.84-.17-3.84-.26-6-.26-8.58,0-15.54,1.5-15.54,3.35V2.25S173.36,0,185.25,0c1.81,0,3.43.06,4.86.16C198.07.7,200.45,2.48,200.45,2.48Z"/><path class="u" d="M200.45,2.48v2c0-1.39-4-2.59-9.58-3.09h0c-.27-.45-.53-.89-.76-1.25C198.07.7,200.45,2.48,200.45,2.48Z"/><path class="v" d="M200.45,4.5c0,1.24-3.14,2.33-7.81,2.9a24.17,24.17,0,0,0-1.84-6C196.46,1.9,200.45,3.1,200.45,4.5Z"/><path class="w" d="M104.69,94.85a15.18,15.18,0,0,1-2.36.36c-1.84.21-4.51.41-7.35.56s-5.61.22-8.09.18h-.64c-2.31-.06-4.08-.16-5.42-.25l-1.37-.12a21,21,0,0,1-2.12-.28c-.35-1.56,2.81-20.82,3.8-24.23s4.6-8.36,4.6-8.36c0-.51.08-1.1.15-1.73.15-1.51.38-3.29.62-4.92.39-2.75.77-5.1.77-5.1,6.54.19,9.5-.6,9.5-.61s.31.64.66,1.47h0c.53,1.25,1.18,2.93,1,3.45a6.58,6.58,0,0,1-1.41,2.06l-.3.32c.11,1.43,1.89,13.63,3.27,18.39S104.69,94.85,104.69,94.85Z"/><path class="x" d="M98.49,55.26a6.58,6.58,0,0,1-1.41,2.06c-1.87.6-2.14,0-2.14,0,2.61-.73,2.55-4.69,2.5-5.56C98,53.06,98.62,54.74,98.49,55.26Z"/><path class="x" d="M90.17,57.37s-1.46,1.79-3.28,1A38.81,38.81,0,0,1,86.38,64a62.44,62.44,0,0,0-4.94,16c-1.2,7-1.76,12.92-2,15.59a21,21,0,0,1-2.12-.28c-.35-1.56,2.81-20.82,3.8-24.23s4.6-8.36,4.6-8.36c0-.51.08-1.1.15-1.73.15-1.51.38-3.29.62-4.92A4.32,4.32,0,0,0,90.17,57.37Z"/><path class="g" d="M82.18,69s-.3,1.21-.74,1.34-2.72-2.17-5.58-5.07a57.32,57.32,0,0,1-5.49-6.75c.64-2.29,6.36-9.13,6.36-9.13a9.23,9.23,0,0,1,2.55,2.17,10.14,10.14,0,0,1,.66.9,5.68,5.68,0,0,1,.9,1.87,20.9,20.9,0,0,1-4.23,3.76s2,3.52,3.14,5.59h0l.14.24A53.11,53.11,0,0,1,82.18,69Z"/><path class="y" d="M96.78,50.34a15.78,15.78,0,0,1-1.72.31l-.34,0a48.57,48.57,0,0,1-6.08.29h-.35l-1,0s-.39,2.36-.78,5.13c-.2,1.45-.41,3-.56,4.39,0,.17,0,.34,0,.5a2.84,2.84,0,0,1-.08-.34l-2.22-9.35a36,36,0,0,1-2.75,3s-.32-.74-.78-1.57a11.73,11.73,0,0,0-.78-1.2,9.32,9.32,0,0,0-2.67-2c.31-.37,4.32-5.76,6.25-6.93a26.91,26.91,0,0,1,2.94-1.51l.32-.14a17.62,17.62,0,0,1,2.82-1s1.77.14,2.63.31a7.12,7.12,0,0,1,.94.26l.39.16a3.05,3.05,0,0,1,1.46,1.23C95,43,95.44,43.14,95.5,44.66A41.34,41.34,0,0,0,96.78,50.34Z"/><path class="z" d="M88.64,51a.17.17,0,0,1-.13.16h0A.17.17,0,0,1,88.3,51V51l-2.49-9.9.32-.14,2.52,10Z"/><path class="g" d="M97.46,36.91c-1.18,1.21-3.48,1.56-5.48,1a5.27,5.27,0,0,1-.56-.19l-.28-.12a8.36,8.36,0,0,1-3.09-2.71c-.27-.37-.42-.62-.42-.62a1.54,1.54,0,0,1-1-.41c-1.15-1-1.17-3.5-.26-3.92,1.12-.52,1.29.86,1.29.86a10.57,10.57,0,0,1,1.49-3.47c.09-.12.19-.23.29-.34,1-1,2.46-2.36,3-2.89h0l.25-.22c3.33.73,4.5.26,4.5.26l.11.34c0,.09.07.21.12.34.41,1.22,1.26,3.78,1.72,5.29A8.49,8.49,0,0,1,97.46,36.91Z"/><path class="aa" d="M86.07,107c-.21,5.45,0,21.37,0,21.37H85c-.12,0-5.45-17.69-5.66-21.94a12.43,12.43,0,0,1,2.33-7.52l-.87-3.24,1.37.08c1.11.07,2.45.13,4,.17h.64C86.74,97.44,86.26,102.44,86.07,107Z"/><path class="aa" d="M109.23,127.22l-1.21.26h0s-4.32-7.23-6.75-10.69S96.38,109,96,105.8a26.86,26.86,0,0,1,.57-7.48L95,95.77l2.11-.12c2-.13,3.86-.29,5.24-.44.24,1.6,1.11,7.23,1.88,11.89C105.12,112.6,109.23,127.22,109.23,127.22Z"/><path class="g" d="M85.69,69.15c-.31.17-1.6-.78-2.56-.48,0,0,1.73.91,1.52,1.43s-1.66-.22-2-.42c.3.25,1.15,1.36,1,1.63s-1.61-1-1.61-1,.57,1.16.22,1.51-.74-1.51-.74-1.51A8.59,8.59,0,0,1,82.18,69c.5-.67,1.12-1.78,1.86-1.48S86,69,85.69,69.15Z"/><path class="g" d="M105.63,58.55c-.2,1.9-.94,2.75-2,3a4.26,4.26,0,0,1-1.78-.11c-2-.47-2.82-3.15-3.51-5.71s-2.38-7.92-2.68-9.91a13.82,13.82,0,0,1-.17-3.2,1.55,1.55,0,0,1-.82-.35.12.12,0,0,1-.06-.09c0-.17.35-.36.67-.5-.5.18-1.27.4-1.44.2s1.17-1.45,1.25-1.51c-.09,0-1.73.73-1.94.52s1.47-1.25,1.67-1.38c-.21.09-2.09.88-2.29.56s1.86-1.62,2.52-1.87a1.29,1.29,0,0,1,1.26.39s.95-.17.91.56a1.38,1.38,0,0,1,.69,1.44,9.53,9.53,0,0,1-.65,2c.08.13,3.85,6,5.45,8.3S105.94,55.73,105.63,58.55Z"/><path class="ab" d="M108,127.49l.48,1.34h5.84S111.39,125.8,108,127.49Z"/><path class="g" d="M92,37.87l-.07,1.05-.17,2.45c-.95.47-2.77-.74-2.77-1.17,0-.2-.19-1.32-.4-2.48-.25-1.4-.52-2.87-.52-2.87a8.36,8.36,0,0,0,3.09,2.71A6,6,0,0,0,92,37.87Z"/><path class="ac" d="M99.71,22.89a.13.13,0,0,1,0,.06c0,.86-1.23,1.4-2.39,1.49l-.11-.34s-1.17.47-4.5-.26c0,0-2.08,1.86-3.29,3.11a7.74,7.74,0,0,0-1.47,2.73c-.21.63-.31,1.08-.31,1.08s-.15-1.2-1.08-.94a.9.9,0,0,0-.21.08c-.46.21-.68,1-.64,1.78a3.48,3.48,0,0,0,.57,1.79,2.2,2.2,0,0,0,.33.35,7.33,7.33,0,0,0-.44,1c-.82,2.36,1.74,4.35,3.07,5.61a5.19,5.19,0,0,1,1.38,5h0a2.76,2.76,0,0,1-1.12,1.39,5.1,5.1,0,0,1-4.63.56c1.34-1,.48-3.37-1.43-4.46s-2.77-1.9-2.81-4.81S84,32.84,84,32.84L85,31a0,0,0,0,1,0,0s0,0,0,0l.46-.89c-.24-1.12-.82-3.94.22-6.23S89.8,20,93.86,20.38,99.71,21.89,99.71,22.89Z"/><path class="ad" d="M87.94,29.68c-.21.63-.31,1.08-.31,1.08s-.17-1.38-1.29-.86c-.82.37-.88,2.44-.07,3.57C85.41,33,84.44,32.12,85,31a0,0,0,0,1,0,0s0,0,0,0A2.62,2.62,0,0,1,87.94,29.68Z"/><path class="z" d="M95.06,50.63v0a.16.16,0,0,1-.13.19h0a.17.17,0,0,1-.17-.13v0L92.51,40.5l.39.16Z"/><path class="h" d="M76.61,58.07s2,3.52,3.14,5.59c-1.8-2.49-4.1-5-4.1-5,1.22-.9,3.44-4.67,4.29-6.19a5.68,5.68,0,0,1,.9,1.87A20.9,20.9,0,0,1,76.61,58.07Z"/><path class="h" d="M85.69,69.15c-.31.17-1.6-.78-2.56-.48,0,0,1.73.91,1.52,1.43s-1.66-.22-2-.42c.3.25,1.15,1.36,1,1.63s-1.61-1-1.61-1,.57,1.16.22,1.51-.74-1.51-.74-1.51A8.59,8.59,0,0,1,82.18,69c.5-.67,1.12-1.78,1.86-1.48S86,69,85.69,69.15Z"/><path class="h" d="M103.61,61.51a4.26,4.26,0,0,1-1.78-.11c-2-.47-2.82-3.15-3.51-5.71s-2.38-7.92-2.68-9.91a13.82,13.82,0,0,1-.17-3.2,1.55,1.55,0,0,1-.82-.35.12.12,0,0,1-.06-.09,2,2,0,0,0,1.89-.41,11.63,11.63,0,0,0,0,4.56,31,31,0,0,0,4,9.18A39.54,39.54,0,0,1,103.61,61.51Z"/><path class="h" d="M92,37.87l-.07,1.05a5.67,5.67,0,0,1-3.34-1.2c-.25-1.4-.52-2.87-.52-2.87a8.36,8.36,0,0,0,3.09,2.71A6,6,0,0,0,92,37.87Z"/><path class="h" d="M91.42,37.68l-.28-.12a8.36,8.36,0,0,1-3.09-2.71c-.27-.37-.42-.62-.42-.62a1.54,1.54,0,0,1-1-.41c-1.15-1-1.17-3.5-.26-3.92,1.12-.52,1.29.86,1.29.86a10.57,10.57,0,0,1,1.49-3.47,10,10,0,0,0-.32,6A9.26,9.26,0,0,0,91.42,37.68Z"/><path class="h" d="M97.43,24.78a13.41,13.41,0,0,1-5-.72l.25-.22c3.33.73,4.5.26,4.5.26l.11.34C97.34,24.53,97.38,24.65,97.43,24.78Z"/><path class="ad" d="M74.49,59.15a.17.17,0,0,1-.17-.16.17.17,0,0,1,.15-.19A5.94,5.94,0,0,0,77,57.61a.17.17,0,0,1,.24,0,.18.18,0,0,1,0,.25,6.3,6.3,0,0,1-2.68,1.26Z"/><path class="ad" d="M94.59,33.13h-.28a.09.09,0,0,1-.09-.09.09.09,0,0,1,.09-.08,3.09,3.09,0,0,0,1.85-.31A25.6,25.6,0,0,1,95,29.06a.08.08,0,0,1,.09-.08.07.07,0,0,1,.08.08,25.23,25.23,0,0,0,1.2,3.56.11.11,0,0,1,0,.11S96,33.13,94.59,33.13Z"/><path class="ac" d="M89.23,28.37a3,3,0,0,1,3.53-1.23s-.18.27-1.76.64S89.23,28.37,89.23,28.37Z"/><path class="ac" d="M95,27.37a2.85,2.85,0,0,1,2-.51c1.12.19,1.22.81,1.22.81A18.19,18.19,0,0,0,95,27.37Z"/><path class="n" d="M91,34.14a6.81,6.81,0,0,0,3,.71,7.15,7.15,0,0,0,2.9-.48,3.79,3.79,0,0,1-3,2.19C91.88,36.71,91,34.14,91,34.14Z"/><path class="ad" d="M87,33.13h0A.07.07,0,0,1,87,33a5,5,0,0,0-.65-2.31.07.07,0,0,1,0-.11.09.09,0,0,1,.12,0,4.87,4.87,0,0,1,.67,2.41A.1.1,0,0,1,87,33.13Z"/><path class="ad" d="M86.72,32.39a.41.41,0,0,1-.42-.21c-.13-.31.31-.7.36-.74a.08.08,0,0,1,.12,0,.11.11,0,0,1,0,.13c-.11.09-.39.38-.32.54s.4.11.51.08a.07.07,0,0,1,.1.05.08.08,0,0,1-.06.11A.87.87,0,0,1,86.72,32.39Z"/><path class="o" d="M91.84,29.46c0,.49-.18.88-.39.88s-.39-.39-.39-.88.17-.88.39-.88S91.84,29,91.84,29.46Z"/><path class="o" d="M96.78,29.29c0,.58-.17,1.05-.39,1.05S96,29.87,96,29.29s.17-1.06.38-1.06S96.78,28.71,96.78,29.29Z"/><path class="ae" d="M86.5,56.08c-.2,1.45-.41,3-.56,4.39l-.13.16-2.22-9.35a36,36,0,0,1-2.75,3s-.32-.74-.78-1.57c1.11-.89,3.58-3,4-4.77C84,48,84.23,53.46,86.5,56.08Z"/><path class="af" d="M89.23,40.46a5.19,5.19,0,0,1,1.38,5,5,5,0,0,0-2.56-4.5C85,39.48,83.66,35,85.34,32.3c.13-.2.25-.41.36-.62a3.48,3.48,0,0,0,.57,1.79,2.2,2.2,0,0,0,.33.35,7.33,7.33,0,0,0-.44,1C85.34,37.21,87.9,39.2,89.23,40.46Z"/><path class="af" d="M99.7,23c0,.86-1.23,1.4-2.39,1.49l-.11-.34s-1.17.47-4.5-.26c0,0-2.08,1.86-3.29,3.11a7.74,7.74,0,0,0-1.47,2.73c-.21.63-.31,1.08-.31,1.08s-.15-1.2-1.08-.94c.77-1.9,1.34-3.73,2.94-5A10.34,10.34,0,0,1,99.7,23Z"/><path class="ag" d="M102.1,114.81c2.42,4.74,4.74,10.16,5.92,12.67h0s-4.32-7.23-6.75-10.69S96.38,109,96,105.8a26.86,26.86,0,0,1,.57-7.48L95,95.77l2.11-.12.63,2.8C96.76,101.91,98.84,108.4,102.1,114.81Z"/><path class="ah" d="M108.79,127.89s0,0,0,0Z"/><path class="ag" d="M85.39,128.39H85c-.12,0-5.45-17.69-5.66-21.94a12.43,12.43,0,0,1,2.33-7.52l-.87-3.24,1.37.08c0,1.61,0,4.32,0,4.32s-1.6,2-.74,9C82.21,115.28,84.79,126,85.39,128.39Z"/><path class="w" d="M68.46,126.66l-1.32.09-.23,0s-1.22-2-3.6-5.69a60.58,60.58,0,0,1-6-12.36,10.69,10.69,0,0,1,.45-8.89S55.74,95.46,54.18,91c-1.38-4-3.92-11.1-4.48-12.67L49.59,78s-.73,3.81-1.16,6.45c0,.23-.09.55-.15.94-.6,3.93-2.1,14.81-2.1,14.81,1.81,4.5.94,9.35-.61,13.24s-6.32,12.94-6.32,12.94l-.11,0-1.06.2S39.47,95,39.55,88.49s.13-20.38.13-20.38L41,63.35v-.07c0-.07,0-.19,0-.37,0-.41-.12-1.1-.22-2,0-.12,0-.24,0-.36-.34-3.15-.89-8.37-1.26-12.59-.12-1.49-.23-2.86-.29-4a31.57,31.57,0,0,1,0-3.37c.07-1.54.22-3,.4-4.37.39-2.83.88-4.87.88-4.87h0c1-.21,2-.46,3.06-.7-.16,1.24-.29,3.28-.38,5.38-.08,1.53-.13,3.1-.18,4.4-.05,1.85-.08,3.19-.08,3.19L56,43.44a30.84,30.84,0,0,1,.2-3.33A39.89,39.89,0,0,1,56.84,36a50.51,50.51,0,0,1,1.34-5l2.6.57c-.25,1-.54,2.71-.82,4.63-.2,1.34-.39,2.8-.55,4.22-.25,2.24-.45,4.4-.51,5.91-.09,2,0,5.84.14,9.2.07,1.93.15,3.71.21,4.94,0,.12,0,.24,0,.35,0,.84.06,1.35.06,1.35s0,.22.08.62c0,.11,0,.22.05.35.67,5.15,3.79,29.24,4.33,35C64.39,104.59,68.46,126.66,68.46,126.66Z"/><path class="x" d="M48.28,85.37c-.6,3.93-2.1,14.81-2.1,14.81,1.81,4.5.94,9.35-.61,13.24s-6.32,12.94-6.32,12.94l-.11,0c1.48-3.59,5.66-13.95,6.28-18.07a27.49,27.49,0,0,0,0-8.74Z"/><path class="x" d="M67.14,126.75l-.23,0s-1.22-2-3.6-5.69a60.58,60.58,0,0,1-6-12.36,10.69,10.69,0,0,1,.45-8.89S55.74,95.46,54.18,91c-1.38-4-3.92-11.1-4.48-12.67l.08-.35,9.49,21.55c-1.06,6.83,1.14,11.25,2.33,15.66C62.54,118.65,65.75,124.32,67.14,126.75Z"/><path class="ai" d="M58.18,30.93c0,.06,0,.13-.07.2A44.37,44.37,0,0,0,56,43.44l-13.11.22s.19-9.54.64-13l1.76-.41c1.67-.39,3.4-.79,4.6-1A5.05,5.05,0,0,0,50,30.46a1.56,1.56,0,0,0,1.87,1c1.29-.19,1.72-.8,1.72-.93s0-.25,0-.56Z"/><path class="ai" d="M39.22,39a38,38,0,0,0-.1,5c.06,1.1.17,2.47.29,4l-.08,0h0a6.53,6.53,0,0,1-1.49-.21,9.67,9.67,0,0,1-4.17-2.43c-.09-5.88,1.27-10.48,1.81-11.29.72-1.08,1.22-1.82,4.64-2.55l.3-.07h0A57.45,57.45,0,0,0,39.22,39Z"/><path class="ai" d="M68.72,38.64a57.25,57.25,0,0,1-.93,7.84,34.52,34.52,0,0,1-6.28,1.21l-1.38.17a58.48,58.48,0,0,0-1.07,7.59v0h0c-.11-2.87-.2-6.05-.17-8.19,0-.37,0-.71,0-1A110.78,110.78,0,0,1,60.78,31.5C63.37,32.09,68.73,33.19,68.72,38.64Z"/><path class="aj" d="M63.47,40.35c-.82,2.44-1.7,6.2-2,7.34l-1.38.17a58.48,58.48,0,0,0-1.07,7.59v0h0c-.11-2.87-.2-6.05-.17-8.19l0-.06A21.14,21.14,0,0,1,63.47,40.35Z"/><path class="aj" d="M39.41,48l-.08,0h0a6.53,6.53,0,0,1-1.49-.21c0-.33.13-6,1.38-8.73a38,38,0,0,0-.1,5C39.18,45.11,39.29,46.48,39.41,48Z"/><path class="aj" d="M58.18,30.93c0,.06,0,.13-.07.2a19.58,19.58,0,0,1-7,1.35,8.67,8.67,0,0,1-5.91-2.2c1.67-.39,3.4-.79,4.6-1A5.05,5.05,0,0,0,50,30.46a1.56,1.56,0,0,0,1.87,1c1.29-.19,1.72-.8,1.72-.93s0-.25,0-.56Z"/><path class="ak" d="M59.27,60.75a44.41,44.41,0,0,1-9.62,1,45.85,45.85,0,0,1-8.94-.86c0-.12,0-.24,0-.36a45.74,45.74,0,0,0,18.58-.16C59.25,60.52,59.26,60.64,59.27,60.75Z"/><path class="ak" d="M59.46,63.07a53.67,53.67,0,0,1-9,.87V76.12a.18.18,0,0,1-.18.17.18.18,0,0,1-.17-.17V63.94h-1A40.37,40.37,0,0,1,41,63.28c0-.07,0-.19,0-.37a41.54,41.54,0,0,0,9.38.68,52.52,52.52,0,0,0,9.1-.87C59.43,62.83,59.44,62.94,59.46,63.07Z"/><path class="g" d="M60.13,20.25a3.23,3.23,0,0,1-2.66,1.82l-.06.22h0c-.26.83-1.28,3.78-3.53,5.1a4.66,4.66,0,0,1-2.43.65,5.28,5.28,0,0,1-1.68-.3c-3.18-1.14-4.24-5.2-4.24-5.2h-.1c-1.51-.05-2.09-1.75-2.09-3.2a5,5,0,0,1,.11-1.05h0a2.35,2.35,0,0,1,.19-.53c.15-.3.35-.48.59-.46.89.1,1.08,1.5,1.12,2.3a5.23,5.23,0,0,0,0,.56s0-.09.07-.25c.23-.78.94-3.22,1.53-4.59.72-1.67.91-2.08,1.65-1.78s5.32.91,6.1.47a3.68,3.68,0,0,1,1.63,1.64,7.43,7.43,0,0,1,.34.82c.25.7.45,1.43.6,2v0l.06.28a.06.06,0,0,1,0,0c.14.64.21,1.07.21,1.07s.69-2,1.51-2.25a.78.78,0,0,1,.34,0C60.11,17.79,60.71,18.79,60.13,20.25Z"/><path class="al" d="M59.41,17.68a.78.78,0,0,0-.34,0c-.82.22-1.51,2.25-1.51,2.25A20.72,20.72,0,0,0,57,17.33c-.08-.29-.18-.58-.28-.86a4.12,4.12,0,0,0-.34-.82A3.68,3.68,0,0,0,54.7,14c-.78.44-5.37-.17-6.1-.47s-.93.11-1.65,1.78c-.29.68-.61,1.63-.9,2.5-.39,1.24-.7,2.34-.7,2.34s0-.23,0-.56c0-.8-.23-2.2-1.12-2.3-.24,0-.44.16-.59.46a1.72,1.72,0,0,0-.19.53c-.29-.57.06-1.9.69-3.32.19-.45.42-.9.65-1.34,1-1.87,2.21-2.73,3.2-2.43a4.17,4.17,0,0,1,3.39-2.77A6.62,6.62,0,0,1,58,11.55a8.53,8.53,0,0,1,1.19,3.29A15.37,15.37,0,0,1,59.41,17.68Z"/><polygon class="ad" points="43.45 18.29 43.45 18.29 43.45 18.29 43.45 18.29"/><path class="ad" d="M45.35,19.6a5.23,5.23,0,0,0,0,.56S45.36,19.93,45.35,19.6Z"/><path class="am" d="M39.25,126.36a10.53,10.53,0,0,0-5.42,2.48s4.16.12,6.07,0A13.69,13.69,0,0,0,39.25,126.36Z"/><path class="am" d="M66.76,126.68s.91-.86,2.94-.3a4.58,4.58,0,0,1,2.82,2.51H67.23Z"/><path class="g" d="M38.91,61.18a8.6,8.6,0,0,0,.17,1.26c-1.95-.39-6.06-3.2-6.06-3.2a8.48,8.48,0,0,1-.46-1.87,18.48,18.48,0,0,1-.19-3c0-3.2.3-7.27,1.3-9.09a9.67,9.67,0,0,0,4.17,2.43,6.53,6.53,0,0,0,1.49.21h0c.33,1.16-.12,5.89-.17,6.33v0a5.85,5.85,0,0,1,1.76,1.6A6.45,6.45,0,0,0,38.91,61.18Z"/><path class="an" d="M43.1,36.07c-.08,1.53-.13,3.1-.18,4.4l-3.8.17c.07-1.54.22-3,.4-4.37A8.49,8.49,0,0,1,43.1,36.07Z"/><path class="an" d="M60,36.13c-.2,1.34-.39,2.8-.55,4.22-.9-.05-2.26-.13-3.26-.24A39.89,39.89,0,0,1,56.84,36,28,28,0,0,1,60,36.13Z"/><path class="ak" d="M43.34,60a.18.18,0,0,1-.17-.14c-.51-2.35-1.08-12.3-1.11-12.72a.17.17,0,0,1,.18-.18c.85,0,1.73,0,2.6,0a88.53,88.53,0,0,0,11.45-.71.18.18,0,0,1,.14,0,.2.2,0,0,1,.06.13L56.89,59a.16.16,0,0,1-.16.17L43.35,60Zm-.92-12.69c.08,1.38.6,10,1.06,12.33l13.06-.85-.39-12.13a91.89,91.89,0,0,1-11.31.68C44,47.36,43.22,47.35,42.42,47.33Z"/><path class="ak" d="M60.13,48h0a.19.19,0,0,1-.13-.21c.08-.28.18-.71.3-1.23.54-2.36,1.56-6.73,2.66-8.36a.18.18,0,0,1,.24,0,.18.18,0,0,1,.05.24c-1.07,1.58-2.07,5.91-2.61,8.24l-.3,1.24A.17.17,0,0,1,60.13,48Z"/><path class="g" d="M53.88,27.39c0,.39-.1,1-.16,1.56,0,.36-.07.71-.1,1s0,.53,0,.56-.43.74-1.72.93a1.56,1.56,0,0,1-1.87-1,5.05,5.05,0,0,1-.14-1.16c0-.15,0-.29,0-.44,0-.44,0-.86,0-1.12a5.28,5.28,0,0,0,1.68.3A4.66,4.66,0,0,0,53.88,27.39Z"/><path class="h" d="M53.88,27.39c0,.39-.1,1-.16,1.56a5.3,5.3,0,0,1-3.91-.09c0-.44,0-.86,0-1.12a5.28,5.28,0,0,0,1.68.3A4.66,4.66,0,0,0,53.88,27.39Z"/><path class="h" d="M45.43,22.54c-1.51-.05-2.09-1.75-2.09-3.2a5,5,0,0,1,.11-1.05h0a2.35,2.35,0,0,1,.19-.53c.15-.3.35-.48.59-.46.89.1,1.08,1.5,1.12,2.3a5.23,5.23,0,0,0,0,.56s0-.09.07-.25A12.14,12.14,0,0,0,45.43,22.54Z"/><path class="h" d="M60.13,20.25a3.23,3.23,0,0,1-2.66,1.82l-.06.22a10,10,0,0,0-.06-3.42c.14.64.21,1.07.21,1.07s.69-2,1.51-2.25a.78.78,0,0,1,.34,0C60.11,17.79,60.71,18.79,60.13,20.25Z"/><path class="h" d="M39.16,54.27a2.42,2.42,0,0,0-1.08.27,48.92,48.92,0,0,0-.24-6.81,6.53,6.53,0,0,0,1.49.21h0C39.66,49.1,39.21,53.83,39.16,54.27Z"/><path class="h" d="M39.08,62.44c-1.95-.39-6.06-3.2-6.06-3.2a8.48,8.48,0,0,1-.46-1.87,18.28,18.28,0,0,0,6.35,3.81A8.6,8.6,0,0,0,39.08,62.44Z"/><path class="g" d="M67.79,46.48a53.22,53.22,0,0,1-1.71,7.39c-1.25,4-2.47,7.23-2.47,7.23s0,1.21-1.55,5.24a27.93,27.93,0,0,1-2.55,5.12,11.57,11.57,0,0,0-1.15-3.29,6.12,6.12,0,0,0-1.87-2.41,3.12,3.12,0,0,0-.78-.41,31.27,31.27,0,0,1,3.06-5.59s.07-1.58.29-4.31a58.48,58.48,0,0,1,1.07-7.59l1.39-.17A34.39,34.39,0,0,0,67.79,46.48Z"/><path class="h" d="M61.52,47.69A80,80,0,0,0,59.46,60.6l-3,5.16a3.12,3.12,0,0,0-.78-.41,31.27,31.27,0,0,1,3.06-5.59s.07-1.58.29-4.31a58.48,58.48,0,0,1,1.07-7.59Z"/><path class="o" d="M49.42,19.58c0,.51-.14.91-.31.91s-.32-.4-.32-.91.14-.9.32-.9S49.42,19.08,49.42,19.58Z"/><path class="o" d="M55.05,19.58c0,.51-.15.91-.32.91s-.32-.4-.32-.91.14-.9.32-.9S55.05,19.08,55.05,19.58Z"/><path class="ad" d="M52.82,23.15a5.69,5.69,0,0,1-1-.09.09.09,0,1,1,0-.17,3.45,3.45,0,0,0,2.08-.11,9.15,9.15,0,0,1-1.21-4,.1.1,0,0,1,.08-.1.1.1,0,0,1,.09.08s.24,2.76,1.24,3.93a.19.19,0,0,1,0,.07.08.08,0,0,1,0,.06A2.26,2.26,0,0,1,52.82,23.15Z"/><path class="ad" d="M58.05,21h0a.08.08,0,0,1-.07-.1,6.35,6.35,0,0,1,1.13-2.31.09.09,0,0,1,.14.11A6.27,6.27,0,0,0,58.14,21,.09.09,0,0,1,58.05,21Z"/><path class="ad" d="M44.72,21.16h0a.1.1,0,0,1-.08-.1,7.24,7.24,0,0,0-.54-2.74.09.09,0,1,1,.16-.06,7.28,7.28,0,0,1,.55,2.82A.09.09,0,0,1,44.72,21.16Z"/><path class="ad" d="M44.39,20.44a.36.36,0,0,1-.2-.06.23.23,0,0,1-.11-.22c0-.38.43-.64.45-.65a.07.07,0,0,1,.11,0,.08.08,0,0,1,0,.12s-.36.22-.36.5c0,.06,0,.08,0,.08s.26,0,.37,0a.09.09,0,0,1,.06.16A.9.9,0,0,1,44.39,20.44Z"/><path class="ad" d="M58.61,20.53a1.16,1.16,0,0,1-.43-.1.08.08,0,0,1,0-.11.08.08,0,0,1,.11-.05c.11.05.43.15.54,0s-.13-.39-.31-.57a.08.08,0,0,1,.12-.12c.09.09.54.56.32.81A.39.39,0,0,1,58.61,20.53Z"/><path class="ao" d="M47.28,17.91l.11-.08a2,2,0,0,1,.34-.19,3.24,3.24,0,0,1,.49-.22l.29-.09a2.82,2.82,0,0,1,.31-.07l.31,0a1.08,1.08,0,0,1,.31,0,3,3,0,0,1,.54,0,3.48,3.48,0,0,1,.51.13.13.13,0,0,1,.09.16.14.14,0,0,1-.12.09H50a4.35,4.35,0,0,0-.49,0l-.28,0-.28.05-.28.06-.27.06c-.17.06-.35.09-.48.15l-.33.11-.13.05a.13.13,0,0,1-.17-.08.12.12,0,0,1,0-.14Z"/><path class="ao" d="M53.06,17.64l.12-.09.12-.11a1.4,1.4,0,0,1,.18-.12,3.58,3.58,0,0,1,.52-.27l.32-.09a1.28,1.28,0,0,1,.33-.06l.34,0c.11,0,.23,0,.33,0l.31,0a1.1,1.1,0,0,1,.26.06c.32.11.52.2.52.2a.12.12,0,0,1,.07.17.13.13,0,0,1-.12.08h0l-.51,0a1,1,0,0,0-.25,0h-.26a.94.94,0,0,0-.29,0l-.29,0a5.23,5.23,0,0,0-.57.12c-.17.06-.35.1-.48.16l-.2.07-.17.07-.15,0a.13.13,0,0,1-.15-.1.15.15,0,0,1,0-.13Z"/><path class="ap" d="M54.93,23.69a6.29,6.29,0,0,1-.37,1c-.43,1-1.27,2.24-2.66,2.29a2.85,2.85,0,0,1-2.52-1.68,5.47,5.47,0,0,1-.51-1.17C49,24.13,53,24.36,54.93,23.69Z"/><path class="n" d="M54.93,23.69a6.29,6.29,0,0,1-.37,1,10.69,10.69,0,0,1-5.18.61,5.47,5.47,0,0,1-.51-1.17C49,24.13,53,24.36,54.93,23.69Z"/><path class="ad" d="M47.69,65.9a3.81,3.81,0,0,1-2.13-.75.09.09,0,0,1,.1-.14c1.66,1.1,2.67.6,2.68.6a.09.09,0,0,1,.12,0,.08.08,0,0,1,0,.11A1.69,1.69,0,0,1,47.69,65.9Z"/><path class="aq" d="M51.41,71.33a4,4,0,0,1,.68,0A1,1,0,0,1,51.41,71.33Z"/><path class="ar" d="M46.05,17.82c-.39,1.24-.7,2.34-.7,2.34s0-.23,0-.56c0-.8-.23-2.2-1.12-2.3-.24,0-.44.16-.59.46a1.72,1.72,0,0,0-.19.53c-.29-.57.06-1.9.69-3.32A7.71,7.71,0,0,0,46.05,17.82Z"/><path class="ar" d="M59.41,17.68a.78.78,0,0,0-.34,0c-.82.22-1.51,2.25-1.51,2.25A20.72,20.72,0,0,0,57,17.33a13.74,13.74,0,0,0,2.27-2.49A15.37,15.37,0,0,1,59.41,17.68Z"/><path class="as" d="M53.19,130.19h0a.62.62,0,0,0-.08-.18A.64.64,0,0,1,53.19,130.19Z"/><path class="at" d="M53.19,130.19a.64.64,0,0,0-.06-.18h0c-.22-.62-.71-1.24-1.08-1.12-.65.22.28,2.59,1,2.22a.76.76,0,0,0,.18-.23A1.17,1.17,0,0,0,53.19,130.19Z"/><path class="au" d="M63.26,129.77a.49.49,0,0,0-.08-.16Z"/><path class="au" d="M66.19,129.57a.58.58,0,0,0-.11-.27A2.82,2.82,0,0,0,66.19,129.57Z"/><path class="au" d="M66.76,128.39l-.09,0Z"/><path class="av" d="M66.76,127.12v1.27l-.09,0-.12,0c-1.26-.17-5.95.55-9.48,1.15-1.77.3-3.26.57-3.86.68l-.07-.17c-.23-.62-.73-1.24-1.1-1.12,1-.34,2-.63,3-.86A37.52,37.52,0,0,1,66.76,127.12Z"/><path class="au" d="M53.21,130.88a.76.76,0,0,1-.18.23A.38.38,0,0,0,53.21,130.88Z"/><path class="aw" d="M57.07,129.5c-1.77.3-3.26.57-3.86.68l-.07-.17c-.23-.62-.73-1.24-1.1-1.12,1-.34,2-.63,3-.86C55.65,128.53,56.42,129.06,57.07,129.5Z"/><path class="ax" d="M59.49,128H59.4a.53.53,0,0,1-.51-.43L53,94.91,45.88,55.56a.52.52,0,0,1,1-.19l7.46,41.28,5.55,30.74A.51.51,0,0,1,59.49,128Z"/><path class="ay" d="M59.49,128H59.4a.53.53,0,0,1-.51-.43L53,94.91l1.37,1.74,5.55,30.74A.51.51,0,0,1,59.49,128Z"/><path class="az" d="M67,130c-.38.27-.66-.14-.8-.44a.61.61,0,0,0-.1-.26,1.4,1.4,0,0,0,.1.26.61.61,0,0,1-.11.44c-.26.4-1.77-.41-1.77-.41a.8.8,0,0,1-.39.64c-.28.18-.54-.23-.67-.47a.48.48,0,0,0-.07-.17l.07.17c.07.2.06.54-.59.74a1.48,1.48,0,0,1-1.51-.27,1.06,1.06,0,0,1-.78.58c-.65.17-1.38-.58-1.38-.58a1.12,1.12,0,0,1-.3.72.72.72,0,0,1-.27.19c-.53.23-1.3-.38-1.38-.44s.11.35-1,.6a2.86,2.86,0,0,1-2-.2.79.79,0,0,1-1.06,0,.38.38,0,0,0,.18-.23,1,1,0,0,0,0-.7c.65-.12,2.31-.42,4.26-.75,3.48-.58,7.87-1.24,9.08-1.08l.12,0,.09,0S67.55,129.61,67,130Z"/><path class="ba" d="M58.69,131a.72.72,0,0,1-.27.19c-.53.23-1.3-.38-1.38-.44s.11.35-1,.6a2.86,2.86,0,0,1-2-.2.79.79,0,0,1-1.06,0,.38.38,0,0,0,.18-.23,1,1,0,0,0,0-.7c.65-.12,2.31-.42,4.26-.75A9.32,9.32,0,0,0,58.69,131Z"/><path class="ba" d="M49.25,62.32a.88.88,0,0,1-.17.12l.06.09A1.51,1.51,0,0,1,49,64.17l0,0,0,.14a1.5,1.5,0,0,1,.08.48,1,1,0,0,1-.7.86c-.13,0-.09,1-1.64.86s-3.38-2.16-3.38-2.16c-1.68-.91-4.28-2-4.28-2a7.28,7.28,0,0,1-.16-1.17,6.44,6.44,0,0,1,2-5.36s.06-.07.06-.09l3.72,2.86c2.73-2.16,3.73-1.56,4.46-.39A3.43,3.43,0,0,1,49.23,61l-.06.16v0C49.59,61.8,49.42,62.15,49.25,62.32Z"/><path class="ad" d="M49,64.35a3.46,3.46,0,0,1-1.1.18,3.7,3.7,0,0,1-2.45-1,.09.09,0,0,1,0-.13.08.08,0,0,1,.12,0,3.35,3.35,0,0,0,3.42.73l0,0Z"/><path class="ad" d="M49.08,62.44l.06.09a1.57,1.57,0,0,1-.32,0,3.9,3.9,0,0,1-2.4-1.08.09.09,0,0,1,.11-.13c1.45,1.17,2.36,1.09,2.72,1A.88.88,0,0,1,49.08,62.44Z"/><path class="ad" d="M49.23,61l-.06.16a3.67,3.67,0,0,1-1.77-1.91.09.09,0,0,1,0-.12.08.08,0,0,1,.11,0A3.52,3.52,0,0,0,49.23,61Z"/><path class="bb" d="M49.08,64.83a1,1,0,0,1-.7.86c-.13,0-.09,1-1.64.86s-3.38-2.16-3.38-2.16c-1.68-.91-4.28-2-4.28-2a7.28,7.28,0,0,1-.16-1.17C40.26,62.12,45.73,65.71,49.08,64.83Z"/><path class="ba" d="M59.53,71.72l-.88,1.15-.27.34c-.41.51-.92,1.15-1.53,1.88-1.78,2.12-3.51,4.24-5.2,4.72-1.31.37-2.28.11-2.34-.43a.54.54,0,0,1,.1-.41.3.3,0,0,1,.06-.11l-.14-.06h0a1.13,1.13,0,0,1-.66-1.41l0,0a1.29,1.29,0,0,1-.12-.12A1.76,1.76,0,0,1,48,75.58s0,0,0,0l0-.09a.61.61,0,0,1-.09-.09,1.61,1.61,0,0,1-.26-1.94,4.33,4.33,0,0,1,3.7-2.12,4,4,0,0,1,.68,0s1.73-3,2.37-4.21l0-.08.17-.3c.5-1,.74-1.52.74-1.52a1.94,1.94,0,0,1,.29.08,3.14,3.14,0,0,1,.86.47,6.26,6.26,0,0,1,1.79,2.35A11.54,11.54,0,0,1,59.5,71.4a.15.15,0,0,1,0,.06A2.49,2.49,0,0,1,59.53,71.72Z"/><path class="ad" d="M50.17,74.32a.09.09,0,0,1-.06.11A5.25,5.25,0,0,0,48,75.57l0-.09a.61.61,0,0,1-.09-.09,5.39,5.39,0,0,1,2.1-1.13A.08.08,0,0,1,50.17,74.32Z"/><path class="ad" d="M51,76a.09.09,0,0,1-.07.1,4,4,0,0,0-2.3,1.25,1.29,1.29,0,0,1-.12-.12,4.14,4.14,0,0,1,2.39-1.31A.09.09,0,0,1,51,76Z"/><path class="ad" d="M51.21,78.09a3.34,3.34,0,0,1-1.8.88.3.3,0,0,1,.06-.11l-.14-.06A3.12,3.12,0,0,0,51.1,78a.09.09,0,0,1,.12,0A.11.11,0,0,1,51.21,78.09Z"/><path class="bb" d="M56.57,65.82c-1,1.29-3.8,5.35-4.48,5.56,0,0,1.73-3,2.37-4.21l0-.08.17-.3c.5-1,.74-1.52.74-1.52a1.94,1.94,0,0,1,.29.08A3.14,3.14,0,0,1,56.57,65.82Z"/><path class="bb" d="M59.53,71.72l-.88,1.15-.27.34c-.41.51-.92,1.15-1.53,1.88-1.78,2.12-3.51,4.24-5.2,4.72-1.31.37-2.28.11-2.34-.43L52,78.46c2.92-1,6.3-5.36,7.51-7.06a.15.15,0,0,1,0,.06A2.49,2.49,0,0,1,59.53,71.72Z"/><path class="ab" d="M84.39,126.42a23.3,23.3,0,0,0-.61,2.28,25.4,25.4,0,0,0,3.46-.22l-1.17-2.21Z"/><path class="bc" d="M5.89,89.78,4.74,129.4H3c-1.25,0-2.77,0-3,0s4.3-29.7,5.56-37.68C5.78,90.49,5.89,89.78,5.89,89.78Z"/><polygon class="bc" points="19.29 129.4 13.81 129.4 12.8 127.11 13 123.02 17.76 123.02 19.29 129.4"/><path class="bd" d="M5.58,91.72c.2-1.23.31-1.94.31-1.94L4.74,129.4H3Z"/><polygon class="bd" points="15.88 129.4 13.81 129.4 12.8 127.11 13 123.02 15.06 123.02 15.88 129.4"/><polygon class="be" points="30.04 129.32 21.57 129.32 21.57 123.02 13 123.02 12.69 129.4 4.74 129.4 5.89 89.78 23.98 89.78 30.04 129.32"/><rect class="bc" x="9.79" y="92.25" width="11.59" height="2.25" rx="0.48"/><polygon class="ai" points="30.04 129.32 22.96 129.32 23.48 89.78 23.98 89.78 30.04 129.32"/><polygon class="bf" points="7.21 113.42 25.41 113.42 15.59 99.9 7.21 113.42"/><path class="bg" d="M23.51,112.5H9a.14.14,0,0,1-.11-.06.15.15,0,0,1,0-.13l6.68-10.78a.13.13,0,0,1,.1-.06.12.12,0,0,1,.1,0l7.81,10.76a.12.12,0,0,1,.05.1A.13.13,0,0,1,23.51,112.5Zm-14.3-.24H23.27l-7.59-10.45Z"/><path class="az" d="M28.91,128.14a.16.16,0,0,1,0,.09.12.12,0,0,1-.09,0H22.43a.12.12,0,0,1-.12-.12v-6H11.68v6.08a.12.12,0,0,1-.12.12H5.89a.18.18,0,0,1-.09,0,.14.14,0,0,1,0-.09L7.06,89.78h.25L6,128.11h5.42V122a.12.12,0,0,1,.12-.12H22.43a.12.12,0,0,1,.12.12v6h6.1L22.94,89.78h.24Z"/><path class="az" d="M8.7,93.38c0,.49-.2.89-.45.89s-.45-.4-.45-.89.2-.89.45-.89S8.7,92.89,8.7,93.38Z"/><path class="az" d="M22.92,93.38c0,.49-.2.89-.45.89s-.46-.4-.46-.89.21-.89.46-.89S22.92,92.89,22.92,93.38Z"/><polygon class="bh" points="15.59 110.04 14.34 105.21 17.68 105.21 16.31 110.04 15.59 110.04"/><path class="bh" d="M15.4,111.17a.61.61,0,1,1,.61.6A.6.6,0,0,1,15.4,111.17Z"/><path class="ba" d="M139.2,112.51l-.35,2-2.31,13.86a33.57,33.57,0,0,1-5.87.82,32.35,32.35,0,0,1-9.71-.82l-1.84-15.24-.08-.66Z"/><path class="bb" d="M139.2,112.51l-.35,2a32.92,32.92,0,0,1-5.35.55,48.51,48.51,0,0,1-14.38-1.93l-.08-.66Z"/><path class="bb" d="M139.2,112.51l-.35,2-2.31,13.86a33.57,33.57,0,0,1-5.87.82,141.08,141.08,0,0,0,2.83-14.13c.13-.91.23-1.79.29-2.59Z"/><path class="bi" d="M128.27,111.55h-2l-.7-3.62c-.33-1.66-.65-3.31-.69-3.5a2.3,2.3,0,0,0,1.67.32l1.2,4.85Z"/><path class="bj" d="M128.27,111.55h-2l-.7-3.62a14.34,14.34,0,0,0,2.18,1.67Z"/><path class="at" d="M129.91,101.08l-1.06.24-1.22.28L127,99.52a2.88,2.88,0,0,0,1.86-.39,2.32,2.32,0,0,0,.46-.35Z"/><path class="bi" d="M129.91,101.08l-1.06.24V99.13a2.32,2.32,0,0,0,.46-.35Z"/><polygon class="an" points="123.56 111.55 119.15 111.55 119.77 106.75 122.09 106.75 123.56 111.55"/><polygon class="bk" points="123.56 111.55 121.57 111.55 121.31 106.75 122.09 106.75 123.56 111.55"/><path class="at" d="M118.64,105.07c-.31,1.56-1.57,2.08-1.74,1.93s-.12-.46.32-1.17a3.68,3.68,0,0,0,.39-1.6c0-.22,0-.36,0-.36l1.08.12A3.73,3.73,0,0,1,118.64,105.07Z"/><path class="bi" d="M118.64,105.07c-.3-.26-.77-.64-1-.84,0-.22,0-.36,0-.36l1.08.12A3.73,3.73,0,0,1,118.64,105.07Z"/><path class="av" d="M126.59,104.75l2.8-2.31h3.82l-3.3-1.36-2.28.52-2.71,2.83S125.33,105,126.59,104.75Z"/><path class="av" d="M127,99.53s.48-.82,2.32-.75C129.31,98.78,128.75,99.78,127,99.53Z"/><polygon class="bl" points="118.51 101.6 117.5 101.6 117.22 103.83 118.26 103.98 118.51 101.6"/><polygon class="l" points="124.92 103.63 123.14 104.8 118.26 103.98 118.28 103.7 118.44 101.6 123.35 101.6 124.45 103.02 124.92 103.63"/><path class="bl" d="M124.92,103.63l-1.78,1.17-4.88-.82,0-.28c1,0,4.34.17,4.34.17l1.83-.85Z"/><polygon class="bm" points="122.29 104.64 122.29 105.44 119.22 105.44 119.22 104.09 122.29 104.64"/><polygon class="bn" points="122.29 104.64 122.29 105.22 119.22 104.35 119.22 104.09 122.29 104.64"/><polygon class="ba" points="122.09 106.75 119.77 106.75 119.77 105.44 121.73 105.44 122.09 106.75"/><polygon class="bb" points="122.09 106.75 121.27 106.75 120.5 105.44 121.73 105.44 122.09 106.75"/><polygon class="an" points="118.04 102.25 117.93 103.3 117.5 103.25 117 103.2 117.11 102.13 117.97 102.24 118.04 102.25"/><polygon class="bk" points="118.04 102.25 117.93 103.3 117.5 103.25 117.97 102.24 118.04 102.25"/><polygon class="at" points="135.97 111.55 128.27 111.55 127.76 109.5 126.59 104.75 129.39 102.44 133.21 102.44 135.14 108.81 135.97 111.55"/><path class="bo" d="M136,111.55h-7.7l-.51-2a26.83,26.83,0,0,0,3.52.35,14.39,14.39,0,0,0,3.86-1Z"/><path class="az" d="M139.67,112.19a.63.63,0,0,1-.63.64H119.15a.64.64,0,0,1-.64-.64.65.65,0,0,1,.64-.64H139A.64.64,0,0,1,139.67,112.19Z"/><path class="ba" d="M139.67,112.19a.63.63,0,0,1-.63.64h-7.17l.64-1.28H139A.64.64,0,0,1,139.67,112.19Z"/><path class="bp" d="M129.09,111.55c0,.3-.06.74-.11,1.28-.18,2-.52,5.32-.94,7.76-.31,1.8-.67,3.12-1,3.07-1.15-.16-.71-3.44-.79-3.56s-1,3.71-2,3.55-.08-3.67,0-4c-.13.28-1.59,3.48-2.39,3.13s.6-4.42.62-4.54-2,2.91-2.66,2.6.12-1.3.73-3.32a38.34,38.34,0,0,1,2-4.72c.25-.52.46-1,.62-1.28Z"/><path class="an" d="M142,118.82c-.22-.39-1.48-.41-2.63-.6l-.33-.06a5.16,5.16,0,0,1-.5-.13h0c-.81-.26-1.81-.76-2.61-1l-.33-.07-.31,0a.75.75,0,0,0-.67.29l-.62-1.9-.1-.33-.53-1.61-.1-.32-.5-1.55a3.42,3.42,0,0,1,1.32-.14,1.06,1.06,0,0,1,.47.17.38.38,0,0,1,.12.09,4.58,4.58,0,0,1,1-1.24,1.78,1.78,0,0,1,.27-.17,2.54,2.54,0,0,1,1.26-.32h.23l.21,0a3.17,3.17,0,0,1,2.13,1.27,2.43,2.43,0,0,1,.2.25,12,12,0,0,1,1.31,2.66c0,.09.07.18.1.27a0,0,0,0,1,0,0,11,11,0,0,1,.59,3.14h0c0,.38,0,.71,0,1S142,118.75,142,118.82Z"/><path class="bq" d="M142.07,119a.31.31,0,0,0,0-.19c0,.09,0,.15,0,.17S142.08,119,142.07,119Z"/><path class="bq" d="M142.06,119s0,0,0,0S142.07,119,142.06,119Z"/><path class="bk" d="M142.06,119s0-.08,0-.17c-.28-.5-2.2-.39-3.46-.79h0c-1.4-.45-3.35-1.59-3.92-.76-.27.39,1.5.84,2.79,1.27s4.53,1.2,4.65.48C142.06,119,142.06,119,142.06,119Z"/><path class="br" d="M141.11,129.32l-4.59,1.11a12.73,12.73,0,0,1,.2,1.26l4.63-.92Z"/><polygon class="bs" points="131.87 130.25 131.9 131.38 136.72 131.69 136.52 130.43 131.87 130.25"/><path class="bt" d="M136.52,128.5c-.14-.08-4.65,1.74-4.65,1.74l4.65.19,4.59-1.11S136.67,128.58,136.52,128.5Z"/><path class="w" d="M130.67,121.5c-1.43.22-.88-4.43-.78-5.19-.12.68-.76,4.39-1.74,4.31a.23.23,0,0,1-.11,0c-.83-.39.11-4.6.22-5.07-.14.44-1.24,3.93-2.06,3.75s0-4.67,0-4.67-1.72,3.79-2.64,3.47c-.62-.22.11-3.25.72-5.24.16-.52.32-1,.43-1.28h7.17c0,.31,0,.75,0,1.28C131.92,115.73,131.81,121.32,130.67,121.5Z"/><path class="bu" d="M135.94,117.06l-.33-.07c-.09-.59-.17-1.14-.25-1.65h0a2.87,2.87,0,0,0,0-.31,15.8,15.8,0,0,0-.37-1.71h0l-.09-.31a6,6,0,0,0-.74-1.6,1.06,1.06,0,0,1,.47.17,6.59,6.59,0,0,1,.59,1.38l.09.31a17.59,17.59,0,0,1,.37,1.74l.06.32c.08.52.16,1.07.25,1.66A.15.15,0,0,0,135.94,117.06Z"/><path class="bu" d="M139.4,118.22l-.33-.06a19.93,19.93,0,0,0-1-3.07l-.13-.31c-.3-.7-.61-1.35-.92-1.94l-.14-.29c-.49-.91-.93-1.65-1.23-2.12a1.78,1.78,0,0,1,.27-.17c.31.49.77,1.25,1.26,2.19l.15.28c.31.62.63,1.29.93,2a2.88,2.88,0,0,1,.13.31A18.29,18.29,0,0,1,139.4,118.22Z"/><path class="bu" d="M142,118.54a27.43,27.43,0,0,0-1.78-3.83l-.16-.29c-.45-.8-.91-1.57-1.35-2.25,0-.09-.11-.18-.17-.27-.53-.82-1-1.5-1.35-2h.23l.21,0c.35.47.77,1.08,1.22,1.78,0,.09.11.18.17.27.44.71.91,1.51,1.37,2.33l.15.29c.53,1,1,2,1.43,3h0C142,118,142,118.3,142,118.54Z"/><path class="bu" d="M140,111.49c-.27.17-.58.35-.94.53l-.31.15a10.51,10.51,0,0,1-1.37.56l-.31.11a14,14,0,0,1-1.8.43l-.32,0h0a12.75,12.75,0,0,1-1.55.1l-.1-.32a11.28,11.28,0,0,0,1.56-.09l.32-.05a11.21,11.21,0,0,0,1.75-.41l.3-.1a12.58,12.58,0,0,0,1.35-.55l.31-.15c.35-.18.66-.35.91-.51A2.43,2.43,0,0,1,140,111.49Z"/><path class="bu" d="M141.4,114.45c-.24.06-.53.13-.84.19l-.32.07c-.55.11-1.16.23-1.82.33l-.32,0c-.77.11-1.59.2-2.42.24h-.33c-.28,0-.57,0-.85,0H134l-.1-.33c.46,0,.93,0,1.39,0l.32,0c.81,0,1.6-.12,2.35-.23l.32,0c.65-.09,1.25-.2,1.79-.31l.33-.07.88-.2c0,.09.07.18.1.27A0,0,0,0,1,141.4,114.45Z"/></g></svg>