<svg xmlns="http://www.w3.org/2000/svg" viewBox="0 0 115.77 118.31"><defs><style>.a{fill:#e0edf9;}.b{fill:#d64e27;}.c{fill:#bf3b27;}.d{fill:#2755a5;}.e{fill:#214287;}.f{fill:#a6ddeb;}.g{fill:#66c8ce;}.h{fill:#9d5e55;}.i{fill:#844741;}.j{fill:#7bc6c9;}.k{fill:#c72f47;}.l{fill:#6e2c27;}.m{fill:#ee7123;}.n{fill:#ce8686;}.o{fill:#f1b5ab;}.p{fill:#2b91be;}.q{fill:#ab3424;}.r{fill:#f5948d;}.s{fill:#4b4063;}.t{fill:#f79738;}.u{fill:#ed8222;}.v{fill:#ed7d27;}.w{fill:#5b1436;}.x{fill:#6c5964;}.y{fill:#f7991c;}.z{fill:#ffc40c;}.aa{fill:#edd260;}.ab{fill:#f5e38f;}.ac{fill:#cde4e1;}.ad{fill:#592019;}.ae{fill:#983222;}.af{fill:#3c1515;}.ag{fill:#461714;}</style></defs><title>Sprzatanie mieszkan 2</title><path class="a" d="M82.52,91.41,31.4,105.54A22.59,22.59,0,0,1,3.51,78.09L16.83,26.75A22.6,22.6,0,0,1,54.56,16.32l37.79,37.2A22.6,22.6,0,0,1,82.52,91.41Z"/><path class="b" d="M51.52,73.82c-.52.6-.88-1.51-.88-1.51s-.07,1.19-.43,1.28-.87-1.43-.87-1.43,0,.79-.36.79c-.22,0-.47-.47-.65-.89h0c-.14-.32-.23-.61-.23-.61a5.67,5.67,0,0,1-.47-3.22s-.72-2.5-1.15-3.53-1.15-2.3-1.15-2.3l.5-.38c.47-.38,1-.86,1.76-1.36a14.37,14.37,0,0,1,3.11-1.6l.58-.2s-.71,8.22-.64,8.34A7.76,7.76,0,0,1,52,69.34C52.11,70,52,73.23,51.52,73.82Z"/><path class="c" d="M48.33,72.05c-.14-.32-.23-.61-.23-.61a5.67,5.67,0,0,1-.47-3.22s-.72-2.5-1.15-3.53-1.15-2.3-1.15-2.3l.5-.38c.47-.38,1-.86,1.76-1.36,0,1.89.31,6.31.74,7.26A12.71,12.71,0,0,0,48.33,72.05Z"/><path class="d" d="M48,77.75a78.38,78.38,0,0,1,.32,11.47C48.06,96.37,47,109,47,109H45.76s-5-18.11-5.67-21.84a10,10,0,0,1,.79-6.39s-4.65-6.71-6.15-9.13S27.93,61,27.93,61l-2.57,1.9s-.64,4.33-1.27,7.47-2.07,13-2.07,13c2.38,7.11.48,13.94-.2,16.16S18.49,110,18.49,110l-.36-.06L17,109.75s-1.11-22.51-1.19-26c0-1.06-.08-2.77-.14-4.82-.13-4.82-.3-11.47-.22-15.59.1-4.72.78-11.06,1.15-15.59l0-.3c.07-1,.14-1.88.17-2.65l0-.45c0-.12,0-.24,0-.36A63,63,0,0,1,18,36h0a.52.52,0,0,0,0-.16s0,0,0,0a0,0,0,0,1,0,0s.72-.33,2-1c.8-.42,1.82-1,3-1.68,3.14-1.83,5.24-3.26,5.24-3.26s1.67-3.53,2.86-6.07c.93-2,1.89-4.12,2.26-4.95.74.13,1.46.28,2.17.43a46.64,46.64,0,0,0-2.28,4.4C32.18,26.1,30.4,30,30.4,30c1.66.52,8,4.53,8,4.53a53.87,53.87,0,0,1,10.06-9.8c.66.5,1.24,1,1.73,1.45-1.22.92-4.11,3.13-5.68,4.58-2,1.86-5.08,5.2-5.08,5.2A31.45,31.45,0,0,1,40,39.13c.14.88.25,1.6.25,1.6l0,0c-.17.23-1.6,2.11-2.86,3.93-.76,1.1-1.79,2.89-2.54,4.25l-.16.3c-.41.76-.72,1.33-.81,1.51v0l0,0v0h0L34,51Z"/><path class="e" d="M20,34.73c-.92,4-2.64,16.33-3,20.47-.26,3.18-1,16.55-1.39,23.69-.13-4.82-.3-11.47-.22-15.59.1-4.72.78-11.06,1.15-15.59l0-.3c.07-1,.14-1.88.17-2.65l0-.45c0-.12,0-.24,0-.36A63,63,0,0,1,18,36h0a.52.52,0,0,0,0-.16s0,0,0,0a0,0,0,0,1,0,0S18.75,35.42,20,34.73Z"/><path class="e" d="M46,109h-.23s-5-18.11-5.67-21.84a10,10,0,0,1,.79-6.39s-4.65-6.71-6.15-9.13S27.93,61,27.93,61l-2.57,1.9s-.64,4.33-1.27,7.47-2.07,13-2.07,13c2.38,7.11.48,13.94-.2,16.16S18.49,110,18.49,110l-.36-.06a140.45,140.45,0,0,0,3.47-14.5,46.24,46.24,0,0,0-.48-11.33S21.33,82,22,77s2.65-14,2.65-14l3.17-2.49s2.33,2.81,5,6.12S43.36,80.35,43.36,80.35,43.2,83.1,43,86.84s1.17,10.71,1.86,14.63C45.33,104.26,45.82,107.38,46,109Z"/><path class="e" d="M40.27,40.73l0,0c-.17.23-1.6,2.11-2.86,3.93-.76,1.1-1.79,2.89-2.54,4.25l-.16.3c-.41.76-.72,1.33-.81,1.51.29-1,4.92-10.11,6.14-11.61C40.16,40,40.27,40.73,40.27,40.73Z"/><path class="f" d="M33.41,18.77c-.37.83-1.33,3-2.26,4.95-1.19,2.54-2.86,6.07-2.86,6.07s-2.1,1.43-5.24,3.26c-1.2.7-2.23,1.26-3,1.69-1.28.68-2,1-2,1a22.83,22.83,0,0,1,2.24-8.06s-5.08-1.47-7.94-1.23a29.56,29.56,0,0,0-.92,9l-.75-.07a22.5,22.5,0,0,0-4,0c-.25-1.23-1.4-7-1.57-9.76a28.85,28.85,0,0,1,.2-5.68s3.89-1.71,11.47-2.34A69.23,69.23,0,0,1,33.41,18.77Z"/><path class="f" d="M52.19,37.66c-.63,3.53-1.07,7.22-1.07,7.22a22.56,22.56,0,0,1,.24,4.73c-.11,2.57-.57,8.32-.66,9.44a14.33,14.33,0,0,0-4,2.29c-.31.24-.58.47-.83.67-.19-.42-3.08-7.06-1.58-9.9,0,0-.44-3.7-.47-6.56s.35-7.66.35-7.66l-.75-.16-3.11,3-.19-1.25c-.19-1.19-.47-2.89-.67-3.53,0,0,3.06-3.34,5.08-5.2,1.57-1.45,4.46-3.66,5.68-4.58a9.64,9.64,0,0,1,2,2.27A30.64,30.64,0,0,1,52.19,37.66Z"/><path class="f" d="M48.44,24.72a53.87,53.87,0,0,0-10.06,9.8s-6.32-4-8-4.53c0,0,1.78-3.89,2.9-6.39a46.64,46.64,0,0,1,2.28-4.4l1.31.29a37.8,37.8,0,0,1,5.51,1.69,25.82,25.82,0,0,1,5.25,2.95C47.93,24.32,48.19,24.52,48.44,24.72Z"/><path class="g" d="M22.6,26.86S20.89,31.45,20,34.74c-1.28.68-2,1-2,1a22.83,22.83,0,0,1,2.24-8.06s-5.08-1.47-7.94-1.23a29.56,29.56,0,0,0-.92,9l-.75-.07c-.4-2-1.18-7,.19-10.31C10.85,25.08,18,25,22.6,26.86Z"/><path class="g" d="M46.66,61.34c-.31.24-.58.47-.83.67-.19-.42-3.08-7.06-1.58-9.9,0,0-.44-3.7-.47-6.56s.35-7.66.35-7.66l-.75-.16-3.11,3-.19-1.25a43.22,43.22,0,0,1,3.18-3.18,28.89,28.89,0,0,1,2.72-1c-.61,2.78,0,16.49,0,16.49C45.43,53.92,46.24,59,46.66,61.34Z"/><path class="g" d="M47.65,24.13a15.16,15.16,0,0,1-6.92-.69,6,6,0,0,1-3.84-4,37.8,37.8,0,0,1,5.51,1.69A25.82,25.82,0,0,1,47.65,24.13Z"/><path class="h" d="M18,36h0Z"/><path class="i" d="M18,36a.52.52,0,0,0,0-.16A1.16,1.16,0,0,0,18,36Z"/><path class="j" d="M56,113.05c0,.08-1.58.31-2.1,1.11s-.24,1.51.48,1.55,1.67.27,1.62.55.48-.31.72-.24-.2,1,.44,1.27.47.79,2.14,1,2.46-1,3-1.26a5.49,5.49,0,0,1,3.15-.08c1,.31,1.15.23,1.79-.16s1.47,0,2-.48.83-1.27,1.5-1.31,1.75.12,2.11-.44.24-1,.87-1,1.19.12,1.39-.35-.63-1.28,0-1.39,1.29-1.16,0-1.47a2.54,2.54,0,0,0-2.17.47Z"/><polygon class="b" points="61.2 114.16 73.35 110.39 69.42 109 56 112.57 61.2 114.16"/><path class="k" d="M18.49,110a4.7,4.7,0,0,0-3.08,0,19.17,19.17,0,0,0-3.87,2.06H19Z"/><path class="k" d="M46,112.05h7.66s-4.4-3.13-8-3.33Z"/><polygon class="l" points="56 112.57 56 113.68 61.2 115.39 61.2 114.16 56 112.57"/><polygon class="m" points="61.2 115.39 73.35 111.46 73.35 110.39 61.2 114.16 61.2 115.39"/><path class="n" d="M59.3,106.3a.48.48,0,0,1-.37-.17L.11,33.19a.47.47,0,0,1,.07-.67.48.48,0,0,1,.67.07l58.82,72.94a.49.49,0,0,1-.07.67A.49.49,0,0,1,59.3,106.3Z"/><path class="o" d="M42.4,19.21s-.29.53-.68,1.18c-.65,1.07-1.57,2.45-2,2.34-.63-.19-.82-1.06-.87-2.49,0-.1,0-.21,0-.32s0-.39,0-.61c0-1.42.28-3.15.28-3.15a1.55,1.55,0,0,0,.14.29,8.93,8.93,0,0,0,3.09,2.76Z"/><path class="p" d="M58.51,106.77c.15-.08,1.55-1.94,1.55-1.94l6.11,6.43-3.42.4Z"/><path class="f" d="M36.73,38.06c-1.53-.78-9.42-4.72-9.49-4.76a.12.12,0,0,0-.1,0,.16.16,0,0,0-.07.07c-.09.22-2.23,5.34-.8,8.25a3.29,3.29,0,0,0,2.19,1.76,5.3,5.3,0,0,0,1.36.18c4.2,0,6.93-5.27,7-5.32A.14.14,0,0,0,36.73,38.06Zm-6.91,5.25a4.91,4.91,0,0,1-1.3-.18,3,3,0,0,1-2-1.63c-1.26-2.58.45-7.14.77-7.93,1,.48,7.62,3.81,9.26,4.65C36.1,39,33.55,43.31,29.82,43.31Z"/><path class="f" d="M34.69,49.23l.16-.3a28.42,28.42,0,0,1-2.79.69v-.74a.1.1,0,0,0-.05-.1.16.16,0,0,0-.12,0l-.66.33a.11.11,0,0,0-.06.11v.57a16.69,16.69,0,0,1-6.34,0,11.8,11.8,0,0,1-4.08-2l.12-.35a.12.12,0,0,0-.05-.13l-.67-.5a.15.15,0,0,0-.11,0,.14.14,0,0,0-.08.09l-.06.25A19.64,19.64,0,0,1,16.83,44c0,.12,0,.24,0,.36a19.44,19.44,0,0,0,3,3.1l-.47,2a14.32,14.32,0,0,1-2.76-2l0,.3a15.44,15.44,0,0,0,2.73,1.92l-.21.9a.11.11,0,0,0,0,.13l.43.28h.1s.07,0,.08-.08L20,50a17.92,17.92,0,0,0,4.5,1.54,18.76,18.76,0,0,0,3.62.35,20.84,20.84,0,0,0,3-.23v.87a.12.12,0,0,0,0,.1.08.08,0,0,0,.07,0h0l.66-.24a.12.12,0,0,0,.07-.11v-.8A18.36,18.36,0,0,0,34,51l-.12-.21a17.34,17.34,0,0,1-1.8.45v-1.4C33.07,49.67,34,49.44,34.69,49.23ZM19.58,50.65l-.23-.15.17-.75.06-.24L20,47.58l.06-.26,0-.19.46.33-.06.2-.08.24-.57,1.78-.08.22Zm5,.66a17.69,17.69,0,0,1-4.47-1.52l.56-1.74a12.15,12.15,0,0,0,4.1,2,12.87,12.87,0,0,0,3,.32A22.3,22.3,0,0,0,31.17,50v1.4A18.9,18.9,0,0,1,24.58,51.31Zm7.25,0v.9l-.42.15V49.28l.42-.21v2.25Z"/><path class="q" d="M50.12,73.66c-.08,0-.18,0-.3-.2a11.43,11.43,0,0,1-1.25-3.83.11.11,0,0,1,.14-.09.11.11,0,0,1,.09.13A12.26,12.26,0,0,0,50,73.32c.07.1.11.11.11.11.28-.13.3-2.64.09-3.75a.12.12,0,0,1,.1-.14.11.11,0,0,1,.13.09c.14.73.33,3.78-.23,4C50.19,73.66,50.16,73.66,50.12,73.66Z"/><path class="r" d="M42.4,19.21s-.29.53-.68,1.18a10.74,10.74,0,0,1-2.83-1.08c0-1.42.28-3.15.28-3.15a1.55,1.55,0,0,0,.14.29,8.93,8.93,0,0,0,3.09,2.76Z"/><path class="b" d="M13.54,47.1a.24.24,0,0,1-.25.08c-.23-.07-.56-.64-.8-1v0c-.13-.2-.23-.36-.27-.36h0l0,0h0c-.19.33-.84,2.5-1.4,2.5a3,3,0,0,1-1.15-.52A10.65,10.65,0,0,1,7,45.59c-.75-1,.2-2.7.2-2.7A15.11,15.11,0,0,0,6.66,40c-.44-1.39-1.34-4.36-1.12-4.45a4.49,4.49,0,0,1,1.1-.24,22.12,22.12,0,0,1,4.15,0l.62.06,1.12.13-.07,6.55A24.23,24.23,0,0,1,14,45.63,2,2,0,0,1,13.54,47.1Z"/><path class="c" d="M13.54,47.1a34.26,34.26,0,0,0-1.63-4.76,50.43,50.43,0,0,1-1.12-6.94l.62.06,1.12.13-.07,6.55A24.23,24.23,0,0,1,14,45.63,2,2,0,0,1,13.54,47.1Z"/><path class="c" d="M12.18,45.79c-.19.33-.84,2.5-1.4,2.5a3,3,0,0,1-1.15-.52A9,9,0,0,0,12.18,45.79Z"/><path class="s" d="M81.14,108.63a.32.32,0,0,1-.32-.32v-2.46a.32.32,0,1,1,.63,0v2.46A.31.31,0,0,1,81.14,108.63Z"/><path class="s" d="M94,109.9a.32.32,0,0,1-.32-.32v-2.27a.32.32,0,0,1,.64,0v2.27A.32.32,0,0,1,94,109.9Z"/><path class="s" d="M107,109.9a.33.33,0,0,1-.32-.32v-2.5a.32.32,0,0,1,.32-.32.32.32,0,0,1,.32.32v2.5A.32.32,0,0,1,107,109.9Z"/><path class="t" d="M110,89.76a17.36,17.36,0,0,0-.56,2.58c-.3,1.81-.59,4.19-.84,6.53-.09.88-.18,1.74-.26,2.57-.32,3.39-.53,6.15-.53,6.15s-4.36.76-14.37.44L91.63,108c-8.5-.42-11-1.65-11-1.91s-1.93-17.8-2.23-20.46l0-.34a25.77,25.77,0,0,0,4.19,1.56,64.7,64.7,0,0,0,7.65,1.75c.7.12,1.43.24,2.19.35l1.37.19C104.64,90.52,110,89.76,110,89.76Z"/><path class="u" d="M110,89.76a17.36,17.36,0,0,0-.56,2.58,53.82,53.82,0,0,1-11.55,0c-11.23-.92-17.11-4.74-19.5-6.77l0-.34a25.77,25.77,0,0,0,4.19,1.56,64.7,64.7,0,0,0,7.65,1.75c.7.12,1.43.24,2.19.35l1.37.19C104.64,90.52,110,89.76,110,89.76Z"/><path class="v" d="M99,75.15l-9.37.17-4.37.08-10.36-3L86.22,71.3l1.11.24C91.19,72.47,99,75.15,99,75.15Z"/><path class="b" d="M89.63,75.32l-4.37.08-10.36-3L86.22,71.3l1.11.24A25.67,25.67,0,0,0,89.63,75.32Z"/><path class="u" d="M91.63,108c-8.5-.42-11-1.65-11-1.91s-2.26-20.8-2.26-20.8a25.77,25.77,0,0,0,4.19,1.56C84.3,92.39,87.75,102.6,91.63,108Z"/><polygon class="w" points="85.04 70.53 79.59 58.44 81.25 58.44 86.53 70.53 85.04 70.53"/><path class="x" d="M82.76,109.75A1.72,1.72,0,1,1,81,108,1.72,1.72,0,0,1,82.76,109.75Z"/><path class="x" d="M95.8,110.57A1.85,1.85,0,1,1,94,108.72,1.84,1.84,0,0,1,95.8,110.57Z"/><ellipse class="x" cx="106.93" cy="109.62" rx="1.85" ry="1.85"/><path class="b" d="M94.57,85.17l-.9,3s-3.2-.46-7.59-1.17-6.49-1.88-6.41-2.65l3.81.54Z"/><path class="j" d="M104,77.08a.72.72,0,1,1-.71-.73A.73.73,0,0,1,104,77.08Z"/><path class="j" d="M111.59,81.19a1,1,0,1,1-1-.91A1,1,0,0,1,111.59,81.19Z"/><path class="j" d="M115.16,85a.66.66,0,1,1-.66-.71A.68.68,0,0,1,115.16,85Z"/><polygon class="y" points="73.59 72.42 78.75 84.17 83.48 84.84 85.06 76.19 73.59 72.42"/><polygon class="z" points="83.48 84.84 97.02 85.24 99.56 76.07 85.06 76.19 83.48 84.84"/><polygon class="aa" points="85.04 76.35 85.26 75.39 73.35 71.93 73.79 72.88 85.04 76.35"/><polygon class="ab" points="85.04 76.35 99.56 76.07 100.03 74.92 85.26 75.39 85.04 76.35"/><polygon class="ab" points="74.91 72.38 86.22 71.3 86.22 70.39 73.35 71.93 74.91 72.38"/><polygon class="aa" points="86.22 71.3 98.6 74.97 100.03 74.92 86.22 70.39 86.22 71.3"/><polygon class="w" points="67.68 59.32 76.97 77.34 78.4 77.1 68.99 58.8 67.68 59.32"/><path class="ac" d="M93.64,88.25a22.92,22.92,0,0,1,2.59-6.52c1.86-3,2.36-3.35,3.33-3.1s1.76,2.73,1.76,2.73,1.11-2.48,3.12-1.9,1.75,3.65,1.75,3.65.74-1.48,1.74-1.27.74,2.28.74,2.28a1.53,1.53,0,0,1,2.07-.71c1.32.71.9,2.56.9,2.56s1.85-1.22,1.9.85.58,3-7.41,2.85A50.45,50.45,0,0,1,93.64,88.25Z"/><path class="j" d="M109.76,86.63a.92.92,0,1,1-.91-.91A.91.91,0,0,1,109.76,86.63Z"/><path class="j" d="M103.61,86.31a1.47,1.47,0,1,1-1.47-1.47A1.47,1.47,0,0,1,103.61,86.31Z"/><circle class="j" cx="99.83" cy="82.62" r="0.83"/><path class="u" d="M108.64,98.87c-.09.88-.18,1.74-.26,2.57A19.8,19.8,0,0,1,99,98.54a23.15,23.15,0,0,1-8.76-10c.7.12,1.43.24,2.19.35,1.78,2.7,4.71,6.68,7.46,8.3C102.32,98.62,105.93,98.9,108.64,98.87Z"/><path class="w" d="M108.47,99.2a20.34,20.34,0,0,1-8.58-2,26.55,26.55,0,0,1-9.07-7.7.31.31,0,0,1,.08-.44.32.32,0,0,1,.44.07c0,.06-18.3-2.5,8.83,7.5,5.42,2,11.53,2.61,14.12.25a2.65,2.65,0,0,0,.83-2.32,8.32,8.32,0,0,0-3.34-5.24.32.32,0,1,1,.33-.54,9,9,0,0,1,3.64,5.73,3.25,3.25,0,0,1-1,2.84C113.37,98.58,111.08,99.2,108.47,99.2Z"/><path class="z" d="M110,90c-.59.49-4.22.85-11.85.27A62.93,62.93,0,0,1,90,89.1a83.39,83.39,0,0,1-9.77-2.65c-2.59-.91-2.23-2.17-1.69-2.71l1.48.75c-.14.72,2.24,1.64,9.16,2.88,1.18.21,2.48.43,3.93.66A88.7,88.7,0,0,0,110,89.25S110.63,89.56,110,90Z"/><path class="y" d="M90,89.1a83.39,83.39,0,0,1-9.77-2.65c-2.59-.91-2.23-2.17-1.69-2.71l1.48.75c-.14.72,2.24,1.64,9.16,2.88A15.39,15.39,0,0,0,90,89.1Z"/><path class="o" d="M50.77,10.83c-.63,1.28-2.82,8-3.21,8.86a2.08,2.08,0,0,1-2.63,1.36,6.29,6.29,0,0,1-1-.29l-.62-.25a13.26,13.26,0,0,1-1.55-.79l-.29-.18a9.25,9.25,0,0,1-3.08-2.82,2.39,2.39,0,0,1-.16-.32,4.65,4.65,0,0,1,.07-2.82,2,2,0,0,1-1.13-1.08c-.69-1.41-.57-3.68.26-4.14a.55.55,0,0,1,.18-.06,1.22,1.22,0,0,1,.32,0c1,.24,1.29,1.53,1.29,1.53a13.34,13.34,0,0,1,1.3-2.71A6.61,6.61,0,0,1,42.7,5.46a7.79,7.79,0,0,1,.71-.34,12.18,12.18,0,0,0,5.1,4.82A11,11,0,0,0,50.77,10.83Z"/><path class="r" d="M39.37,14.16c0,1.7,1.17,3.93,2.1,5.38a9.25,9.25,0,0,1-3.08-2.82,2.39,2.39,0,0,1-.16-.32,4.65,4.65,0,0,1,.07-2.82,2,2,0,0,1-1.13-1.08,9.52,9.52,0,0,0,.26-4.14.55.55,0,0,1,.18-.06,1.22,1.22,0,0,1,.32,0c1,.24,1.29,1.53,1.29,1.53a13.34,13.34,0,0,1,1.3-2.71A6.61,6.61,0,0,1,42.7,5.46,16,16,0,0,0,39.37,14.16Z"/><path class="h" d="M41.47,9.68c-.14-.2.81-1.07,2.17-.78a2.36,2.36,0,0,1,1.73,1.41,19,19,0,0,0-2.08-.49A7.79,7.79,0,0,0,41.47,9.68Z"/><path class="h" d="M48.11,11.73c-.06-.28.4-.78,1.38-.49s.59,1.32.59,1.32a1.58,1.58,0,0,0-.85-.54C48.74,11.93,48.14,11.89,48.11,11.73Z"/><path class="ad" d="M53.18,10.57a.43.43,0,0,1-.11.12,2.9,2.9,0,0,1-2.3.14,11,11,0,0,1-2.26-.89,12.18,12.18,0,0,1-5.1-4.82,8.52,8.52,0,0,0-2.89,2,13.34,13.34,0,0,0-1.3,2.71s-.3-1.29-1.29-1.53h0s-.63-2.73.47-4.06a9.82,9.82,0,0,1,5-3.26A24.89,24.89,0,0,1,46,.21C50.88-.88,52.9,2.52,53.3,3.82S53.86,9.63,53.18,10.57Z"/><path class="ae" d="M38,9.31a.09.09,0,0,0-.11-.05.09.09,0,0,0-.06.11,5.53,5.53,0,0,1,.23,1.06c-.24.1-.88.4-.77.75s.59.35.81.35a3.93,3.93,0,0,1-.12.67.09.09,0,0,0,.06.1h0a.08.08,0,0,0,.08-.06A5.71,5.71,0,0,0,38,9.31Zm-.54,1.81c-.05-.15.31-.38.62-.51a4.57,4.57,0,0,1,0,.75C37.9,11.36,37.52,11.31,37.46,11.12Z"/><path class="ae" d="M46.4,17.13h0a7.84,7.84,0,0,1-2.3-.9.09.09,0,0,1,.09-.15,7.79,7.79,0,0,0,2.16.86c.25-1.38,1-4.56,1-4.59a.08.08,0,0,1,.11-.06.08.08,0,0,1,.06.1s-.8,3.34-1,4.67a.09.09,0,0,1,0,.06Z"/><path class="af" d="M45.42,18.36a3.62,3.62,0,0,1-2.26-.71.09.09,0,0,1,.11-.13,3.64,3.64,0,0,0,2.5.65.1.1,0,0,1,.1.08.08.08,0,0,1-.08.09Z"/><path class="af" d="M43.61,12.2c-.36.53-.46,1.08-.22,1.25s.72-.13,1.08-.65.46-1.08.22-1.25S44,11.68,43.61,12.2Z"/><path class="af" d="M48,13.47c-.35.51-.46,1-.24,1.2s.68-.15,1-.66.47-1,.25-1.19S48.31,13,48,13.47Z"/><path class="ad" d="M44.93,21.05a6.29,6.29,0,0,1-1-.29l-.62-.25c.23-.47.83-1.56,1.47-1.41S45.11,20.38,44.93,21.05Z"/><path class="ag" d="M53.18,10.57a.43.43,0,0,1-.11.12,2.9,2.9,0,0,1-2.3.14,11,11,0,0,1-2.26-.89,12.18,12.18,0,0,1-5.1-4.82,8.52,8.52,0,0,0-2.89,2,13.34,13.34,0,0,0-1.3,2.71s-.3-1.29-1.29-1.53h0s-.63-2.73.47-4.06a9.82,9.82,0,0,1,5-3.26,8.82,8.82,0,0,0,2.43,6C47.63,8.64,50.33,10.8,53.18,10.57Z"/></svg>